<?xml version="1.0" encoding="utf-8"?>
<!-- Generator: Adobe Illustrator 25.0.1, SVG Export Plug-In . SVG Version: 6.00 Build 0)  -->
<svg version="1.1" id="Layer_1" xmlns="http://www.w3.org/2000/svg" xmlns:xlink="http://www.w3.org/1999/xlink" x="0px" y="0px"
	 viewBox="0 0 150 150" style="enable-background:new 0 0 150 150;" xml:space="preserve">
<style type="text/css">
	.st0{fill:url(#SVGID_1_);}
	.st1{fill:url(#SVGID_2_);}
	.st2{fill:url(#SVGID_3_);}
	.st3{fill:url(#SVGID_4_);}
	.st4{fill:url(#SVGID_5_);}
	.st5{fill:url(#SVGID_6_);}
	.st6{fill:url(#SVGID_7_);}
	.st7{fill:url(#SVGID_8_);}
	.st8{fill:url(#SVGID_9_);}
	.st9{fill:url(#SVGID_10_);}
	.st10{fill:url(#SVGID_11_);}
	.st11{fill:url(#SVGID_12_);}
	.st12{fill:url(#SVGID_13_);}
	.st13{fill:url(#SVGID_14_);}
	.st14{fill:url(#SVGID_15_);}
	.st15{fill:url(#SVGID_16_);}
	.st16{fill:url(#SVGID_17_);}
	.st17{fill:url(#SVGID_18_);}
	.st18{fill:#FF2E39;}
	.st19{fill:url(#SVGID_19_);}
	.st20{fill:url(#SVGID_20_);}
	.st21{fill:url(#SVGID_21_);}
	.st22{fill:url(#SVGID_22_);}
	.st23{fill:url(#SVGID_23_);}
	.st24{fill:url(#SVGID_24_);}
	.st25{fill:url(#SVGID_25_);}
	.st26{fill:url(#SVGID_26_);}
</style>
<circle cx="75" cy="75" r="75"/>
<g>
	<g>
		<g>
			<g>
				<linearGradient id="SVGID_1_" gradientUnits="userSpaceOnUse" x1="36.087" y1="86.3775" x2="104.5652" y2="86.3775">
					<stop  offset="0" style="stop-color:#BEA66C"/>
					<stop  offset="0.5008" style="stop-color:#E2CEA5"/>
					<stop  offset="1" style="stop-color:#BCA56B"/>
				</linearGradient>
				<path class="st0" d="M84.37,125H65.63c-1.32,0-2.38-1.07-2.38-2.38l0-71.68c0-1.18,0.86-2.18,2.03-2.36
					c7.46-1.11,13.85-1.1,19.55,0.02c1.12,0.22,1.92,1.2,1.92,2.34v71.68C86.75,123.93,85.68,125,84.37,125z M68.01,120.23h13.97
					V52.95c-4.15-0.6-8.76-0.58-13.97,0.07L68.01,120.23z"/>
			</g>
			<g>
				<linearGradient id="SVGID_2_" gradientUnits="userSpaceOnUse" x1="36.087" y1="38.1841" x2="104.5652" y2="38.1841">
					<stop  offset="0" style="stop-color:#BEA66C"/>
					<stop  offset="0.5008" style="stop-color:#E2CEA5"/>
					<stop  offset="1" style="stop-color:#BCA56B"/>
				</linearGradient>
				<path class="st1" d="M84.99,51.37l-4.77-0.07l0.31-21.01c-3.29-0.72-7.05-0.7-10.73,0.06l-0.28,20.5l-4.77-0.06l0.3-22.35
					c0.01-1.06,0.73-1.99,1.75-2.27c5.73-1.57,11.88-1.56,16.86,0.03c1,0.32,1.68,1.26,1.66,2.31L84.99,51.37z"/>
			</g>
		</g>
	</g>
	<g>
		<g>
			<g>
				<linearGradient id="SVGID_3_" gradientUnits="userSpaceOnUse" x1="36.087" y1="89.1358" x2="104.5652" y2="89.1358">
					<stop  offset="0" style="stop-color:#BEA66C"/>
					<stop  offset="0.5008" style="stop-color:#E2CEA5"/>
					<stop  offset="1" style="stop-color:#BCA56B"/>
				</linearGradient>
				<path class="st2" d="M108.1,125H90.78c-1.32,0-2.38-1.07-2.38-2.38V56.4c0-1.18,0.87-2.18,2.03-2.36
					c6.91-1.03,12.83-1.02,18.13,0.02c1.12,0.22,1.92,1.2,1.92,2.34v66.22C110.48,123.93,109.41,125,108.1,125z M93.17,120.23h12.55
					V58.42c-3.74-0.52-7.88-0.5-12.55,0.07V120.23z"/>
			</g>
			<g>
				<linearGradient id="SVGID_4_" gradientUnits="userSpaceOnUse" x1="36.087" y1="44.5237" x2="104.5652" y2="44.5237">
					<stop  offset="0" style="stop-color:#BEA66C"/>
					<stop  offset="0.5008" style="stop-color:#E2CEA5"/>
					<stop  offset="1" style="stop-color:#BCA56B"/>
				</linearGradient>
				<path class="st3" d="M108.85,56.8l-4.77-0.07l0.28-19.26c-2.92-0.61-6.3-0.59-9.55,0.06l-0.25,18.79l-4.77-0.06l0.28-20.65
					c0.01-1.06,0.73-1.99,1.75-2.27c5.32-1.46,11.04-1.45,15.67,0.03c1.01,0.32,1.68,1.26,1.66,2.31L108.85,56.8z"/>
			</g>
		</g>
	</g>
	<g>
		<g>
			<g>
				<linearGradient id="SVGID_5_" gradientUnits="userSpaceOnUse" x1="36.087" y1="89.1351" x2="104.5652" y2="89.1351">
					<stop  offset="0" style="stop-color:#BEA66C"/>
					<stop  offset="0.5008" style="stop-color:#E2CEA5"/>
					<stop  offset="1" style="stop-color:#BCA56B"/>
				</linearGradient>
				<path class="st4" d="M59.21,125H41.9c-1.32,0-2.38-1.07-2.38-2.38V56.4c0-1.18,0.86-2.18,2.03-2.36
					c6.9-1.03,12.83-1.02,18.12,0.02c1.12,0.22,1.92,1.2,1.92,2.34v66.22C61.6,123.93,60.53,125,59.21,125z M44.28,120.23h12.55
					V58.42c-3.74-0.52-7.87-0.5-12.55,0.07V120.23z"/>
			</g>
			<g>
				<linearGradient id="SVGID_6_" gradientUnits="userSpaceOnUse" x1="36.087" y1="44.5237" x2="104.5652" y2="44.5237">
					<stop  offset="0" style="stop-color:#BEA66C"/>
					<stop  offset="0.5008" style="stop-color:#E2CEA5"/>
					<stop  offset="1" style="stop-color:#BCA56B"/>
				</linearGradient>
				<path class="st5" d="M59.97,56.8l-4.77-0.07l0.29-19.26c-2.91-0.61-6.3-0.59-9.55,0.06l-0.25,18.79l-4.77-0.06l0.28-20.65
					c0.01-1.06,0.73-1.99,1.75-2.27c5.32-1.46,11.04-1.45,15.67,0.03c1,0.32,1.68,1.26,1.66,2.31L59.97,56.8z"/>
			</g>
		</g>
	</g>
</g>
</svg>
