<?xml version="1.0" encoding="utf-8"?>
<!-- Generator: Adobe Illustrator 25.0.1, SVG Export Plug-In . SVG Version: 6.00 Build 0)  -->
<svg version="1.1" id="Layer_1" xmlns="http://www.w3.org/2000/svg" xmlns:xlink="http://www.w3.org/1999/xlink" x="0px" y="0px"
	 viewBox="0 0 150 150" style="enable-background:new 0 0 150 150;" xml:space="preserve">
<style type="text/css">
	.st0{fill:url(#SVGID_1_);}
	.st1{fill:url(#SVGID_2_);}
	.st2{fill:url(#SVGID_3_);}
	.st3{fill:url(#SVGID_4_);}
	.st4{fill:url(#SVGID_5_);}
	.st5{fill:url(#SVGID_6_);}
	.st6{fill:url(#SVGID_7_);}
	.st7{fill:url(#SVGID_8_);}
	.st8{fill:url(#SVGID_9_);}
	.st9{fill:url(#SVGID_10_);}
	.st10{fill:url(#SVGID_11_);}
	.st11{fill:url(#SVGID_12_);}
	.st12{fill:url(#SVGID_13_);}
	.st13{fill:url(#SVGID_14_);}
	.st14{fill:url(#SVGID_15_);}
	.st15{fill:url(#SVGID_16_);}
	.st16{fill:url(#SVGID_17_);}
	.st17{fill:url(#SVGID_18_);}
	.st18{fill:#FF2E39;}
	.st19{fill:url(#SVGID_19_);}
	.st20{fill:url(#SVGID_20_);}
	.st21{fill:url(#SVGID_21_);}
	.st22{fill:url(#SVGID_22_);}
	.st23{fill:url(#SVGID_23_);}
	.st24{fill:url(#SVGID_24_);}
	.st25{fill:url(#SVGID_25_);}
	.st26{fill:url(#SVGID_26_);}
</style>
<circle cx="75" cy="75" r="75"/>
<g>
	<g>
		<linearGradient id="SVGID_1_" gradientUnits="userSpaceOnUse" x1="35.471" y1="75.0007" x2="101.9999" y2="75.0007">
			<stop  offset="0" style="stop-color:#BEA66C"/>
			<stop  offset="0.5008" style="stop-color:#E2CEA5"/>
			<stop  offset="1" style="stop-color:#BCA56B"/>
		</linearGradient>
		<path class="st0" d="M113.08,76.04c-2.74-1.9-6.98-4.84-7.41-5.18c-0.8-0.64-1.5-1.37-2.09-2.21c0.73-0.19,1.4-0.51,2.02-0.95
			c0.61-0.44,1.13-0.97,1.55-1.6c0.05-0.07,0.09-0.14,0.12-0.21c0.03-0.07,0.06-0.15,0.08-0.23c0.02-0.08,0.03-0.16,0.03-0.24
			c0-0.08,0-0.16-0.02-0.24c-0.01-0.08-0.03-0.16-0.06-0.23c-0.03-0.08-0.07-0.15-0.11-0.22c-0.04-0.07-0.09-0.13-0.15-0.19
			c-0.06-0.06-0.12-0.11-0.18-0.16c-0.07-0.05-0.14-0.09-0.21-0.12c-0.07-0.03-0.15-0.06-0.23-0.08c-0.08-0.02-0.16-0.03-0.24-0.03
			s-0.16,0-0.24,0.02c-0.08,0.01-0.16,0.04-0.23,0.07c-0.08,0.03-0.15,0.07-0.22,0.11c-0.07,0.04-0.13,0.09-0.19,0.15
			c-0.06,0.06-0.11,0.12-0.16,0.18c-0.27,0.39-0.59,0.73-0.97,1.01c0.62-1.33,0.99-2.73,1.09-4.2c0-0.08,0-0.16-0.01-0.24
			c-0.01-0.08-0.03-0.16-0.06-0.24c-0.03-0.08-0.06-0.15-0.1-0.22c-0.04-0.07-0.09-0.13-0.14-0.2c-0.05-0.06-0.11-0.12-0.18-0.16
			c-0.07-0.05-0.13-0.09-0.21-0.13c-0.07-0.04-0.15-0.06-0.23-0.08s-0.16-0.03-0.24-0.04c-0.08,0-0.16,0-0.24,0.01
			c-0.08,0.01-0.16,0.03-0.24,0.06s-0.15,0.06-0.22,0.1c-0.07,0.04-0.14,0.09-0.2,0.14c-0.06,0.05-0.12,0.11-0.16,0.18
			c-0.05,0.07-0.09,0.13-0.13,0.21s-0.06,0.15-0.08,0.23c-0.02,0.08-0.03,0.16-0.04,0.24c-0.04,0.7-0.17,1.38-0.38,2.05
			c-1.87-19.47-19.1-27.73-19.28-27.81c-0.2-0.09-0.4-0.12-0.62-0.11c-0.09-0.01-0.19-0.01-0.28,0c-0.09,0.01-0.18,0.03-0.27,0.06
			c-0.09,0.03-0.17,0.07-0.25,0.12c-0.08,0.05-0.15,0.11-0.21,0.18c-0.07,0.07-0.12,0.14-0.17,0.22c-0.05,0.08-0.09,0.16-0.12,0.25
			c-0.03,0.09-0.05,0.18-0.05,0.27c-0.01,0.09-0.01,0.18,0.01,0.28c1.87,14.14-0.27,26.56-6.73,39.08l-0.36,0.71
			c-5.78,11.18-12.97,25.1-4.27,37.39c0.05,0.07,0.1,0.13,0.16,0.18c0.06,0.06,0.12,0.11,0.19,0.15c0.07,0.04,0.14,0.08,0.22,0.11
			c0.08,0.03,0.15,0.05,0.23,0.06c0.08,0.01,0.16,0.02,0.24,0.02s0.16-0.01,0.24-0.03c0.08-0.02,0.16-0.04,0.23-0.08
			c0.07-0.03,0.14-0.07,0.21-0.12c0.07-0.05,0.13-0.1,0.18-0.16c0.06-0.06,0.11-0.12,0.15-0.19c0.04-0.07,0.08-0.14,0.11-0.22
			c0.03-0.08,0.05-0.15,0.06-0.23c0.01-0.08,0.02-0.16,0.02-0.24c0-0.08-0.01-0.16-0.03-0.24c-0.02-0.08-0.04-0.15-0.08-0.23
			c-0.03-0.07-0.07-0.14-0.12-0.21c-7.83-11.06-1.31-23.68,4.45-34.82l0.37-0.71c6.35-12.31,8.67-24.52,7.25-38.25
			c4.59,2.82,16.37,11.67,16.23,28.32c0,0.15,0.02,0.3,0.08,0.44c0.43,1.02,0.99,1.98,1.66,2.86c0.67,0.88,1.45,1.67,2.32,2.36
			c0.63,0.49,6.83,4.78,7.54,5.28c0.19,0.14,0.32,0.33,0.39,0.56c-0.02,0.22-0.11,0.4-0.28,0.55c-1.04,0.58-5.7,3.42-5.17,7.38
			c0.01,0.07,0.02,0.14,0.05,0.21c0.12,0.34,0.28,0.66,0.46,0.96c0.19,0.31,0.4,0.59,0.64,0.85c0.24,0.26,0.51,0.5,0.8,0.71
			c0.29,0.21,0.6,0.39,0.92,0.54c0.04,0.08,0.05,0.17,0.04,0.26c-0.07,0.31-0.63,0.85-1.98,1.36c-0.12,0.04-0.22,0.11-0.32,0.18
			s-0.18,0.17-0.25,0.27c-0.07,0.1-0.12,0.22-0.16,0.34c-0.04,0.12-0.05,0.24-0.05,0.37c0,0.13,0.02,0.25,0.06,0.37
			s0.09,0.23,0.17,0.33c0.07,0.1,0.16,0.19,0.26,0.27c0.1,0.08,0.21,0.14,0.33,0.18c0.59,0.22,1.56,0.8,1.73,1.36
			c0.03,0.08,0.11,0.34-0.24,0.83c-0.08,0.12-0.1,0.12-0.13,0.23c-0.33,0.4-0.74,0.7-1.22,0.89c-0.12,0.06-0.23,0.13-0.32,0.22
			c-0.2,0.2-1.18,1.3-0.34,3.68c0.03,0.09,0.08,0.18,0.13,0.27c0.02,0.02,1.54,2.38,0.75,4.49c-0.54,1.45-2.07,2.56-4.57,3.29
			c-3.66,0.35-7.29,0.14-10.89-0.62c-0.04-0.01-0.08-0.02-0.13-0.02c-0.26-0.03-6.48-0.67-10.84,4.06c-0.06,0.06-0.1,0.12-0.15,0.19
			c-0.04,0.07-0.08,0.14-0.11,0.22s-0.05,0.15-0.06,0.23c-0.01,0.08-0.02,0.16-0.01,0.24c0,0.08,0.01,0.16,0.03,0.24
			c0.02,0.08,0.05,0.15,0.08,0.23c0.03,0.07,0.08,0.14,0.12,0.21c0.05,0.07,0.1,0.13,0.16,0.18c0.06,0.05,0.12,0.1,0.19,0.15
			c0.07,0.04,0.14,0.08,0.22,0.11c0.08,0.03,0.15,0.05,0.23,0.06c0.08,0.01,0.16,0.02,0.24,0.01c0.08,0,0.16-0.01,0.24-0.03
			c0.08-0.02,0.15-0.05,0.23-0.08c0.07-0.03,0.14-0.07,0.21-0.12c0.07-0.05,0.13-0.1,0.18-0.16c3.31-3.59,8.15-3.33,8.7-3.29
			c3.89,0.83,7.8,1.04,11.75,0.63c0.06-0.01,0.12-0.02,0.18-0.04c3.35-0.96,5.47-2.6,6.3-4.86c1.08-2.94-0.5-5.86-0.92-6.55
			c-0.11-0.3-0.16-0.61-0.15-0.93c0.41-0.2,0.78-0.46,1.12-0.77c0.33-0.31,0.62-0.66,0.85-1.06c0.15-0.21,0.28-0.43,0.38-0.66
			c0.1-0.24,0.17-0.48,0.21-0.73c0.04-0.25,0.06-0.51,0.04-0.76c-0.02-0.25-0.06-0.51-0.13-0.75c-0.23-0.67-0.62-1.23-1.16-1.69
			c0.36-0.24,0.66-0.54,0.91-0.89c0.25-0.35,0.43-0.74,0.54-1.15c0.05-0.24,0.07-0.47,0.06-0.71c-0.01-0.24-0.04-0.48-0.11-0.71
			c-0.06-0.23-0.15-0.45-0.27-0.66c-0.12-0.21-0.25-0.4-0.42-0.58c-0.13-0.14-0.29-0.25-0.48-0.31c-0.37-0.14-0.7-0.34-0.99-0.61
			c-0.29-0.27-0.51-0.59-0.68-0.95c-0.16-2.15,2.87-4.22,4.07-4.84c0.11-0.06,0.22-0.13,0.31-0.22c0.19-0.16,0.35-0.35,0.5-0.55
			c0.14-0.2,0.26-0.42,0.36-0.65c0.1-0.23,0.16-0.47,0.2-0.71c0.04-0.25,0.05-0.49,0.04-0.74c-0.07-0.48-0.23-0.92-0.48-1.33
			C113.8,76.66,113.48,76.32,113.08,76.04z"/>
	</g>
	<g>
		<linearGradient id="SVGID_2_" gradientUnits="userSpaceOnUse" x1="35.471" y1="94.775" x2="101.9999" y2="94.775">
			<stop  offset="0" style="stop-color:#BEA66C"/>
			<stop  offset="0.5008" style="stop-color:#E2CEA5"/>
			<stop  offset="1" style="stop-color:#BCA56B"/>
		</linearGradient>
		<path class="st1" d="M84.13,79.91c0.04-0.07,0.07-0.15,0.09-0.22c0.02-0.08,0.04-0.16,0.05-0.24c0.01-0.08,0.01-0.16,0-0.24
			c-0.01-0.08-0.02-0.16-0.05-0.24c-0.02-0.08-0.05-0.15-0.09-0.22c-0.04-0.07-0.08-0.14-0.13-0.2c-0.05-0.06-0.11-0.12-0.17-0.17
			c-0.06-0.05-0.13-0.1-0.2-0.13c-0.07-0.04-0.15-0.07-0.22-0.09c-0.08-0.02-0.16-0.04-0.24-0.05c-0.08-0.01-0.16-0.01-0.24,0
			c-0.08,0.01-0.16,0.02-0.24,0.05c-0.08,0.02-0.15,0.05-0.22,0.09c-0.07,0.04-0.14,0.08-0.2,0.13c-0.06,0.05-0.12,0.11-0.17,0.17
			c-0.05,0.06-0.1,0.13-0.13,0.2l-0.32,0.59c-5.05,9.44-11.33,21.19-3.69,31.61c0.05,0.07,0.1,0.13,0.16,0.18
			c0.06,0.06,0.12,0.1,0.19,0.15c0.07,0.04,0.14,0.08,0.22,0.11c0.08,0.03,0.15,0.05,0.24,0.06c0.08,0.01,0.16,0.02,0.24,0.01
			c0.08,0,0.16-0.01,0.24-0.03c0.08-0.02,0.15-0.05,0.23-0.08c0.07-0.03,0.14-0.08,0.21-0.12c0.07-0.05,0.13-0.1,0.18-0.16
			c0.05-0.06,0.1-0.12,0.15-0.19c0.04-0.07,0.08-0.14,0.11-0.22c0.03-0.08,0.05-0.15,0.06-0.24c0.01-0.08,0.02-0.16,0.01-0.24
			c0-0.08-0.01-0.16-0.03-0.24c-0.02-0.08-0.05-0.15-0.08-0.23s-0.08-0.14-0.12-0.21c-6.72-9.17-1.09-19.7,3.88-28.99L84.13,79.91z"
			/>
	</g>
	<g>
		<linearGradient id="SVGID_3_" gradientUnits="userSpaceOnUse" x1="35.471" y1="82.7242" x2="101.9999" y2="82.7242">
			<stop  offset="0" style="stop-color:#BEA66C"/>
			<stop  offset="0.5008" style="stop-color:#E2CEA5"/>
			<stop  offset="1" style="stop-color:#BCA56B"/>
		</linearGradient>
		<path class="st2" d="M60.77,62.77c1.98-3.26-1.27-9.9-1.94-11.2c-0.05-0.11-0.12-0.2-0.2-0.29c-0.08-0.09-0.18-0.16-0.28-0.22
			c-0.1-0.06-0.21-0.1-0.33-0.13c-0.12-0.03-0.23-0.04-0.35-0.03c-0.12,0.01-0.24,0.03-0.35,0.07c-0.11,0.04-0.22,0.1-0.31,0.17
			c-0.1,0.07-0.18,0.15-0.25,0.25c-0.07,0.09-0.13,0.2-0.17,0.31l-2.29,6.08c-0.02,0.05-0.03,0.1-0.04,0.15
			c-0.91,3.77,0.84,5.66,2.22,6.32v12.6h-1.24c-0.12,0-0.24,0.01-0.36,0.04c-0.12,0.02-0.23,0.06-0.35,0.11
			c-0.11,0.05-0.22,0.1-0.32,0.17c-0.1,0.07-0.19,0.14-0.28,0.23s-0.16,0.18-0.23,0.28c-0.07,0.1-0.13,0.21-0.17,0.32
			c-0.05,0.11-0.08,0.23-0.11,0.35c-0.02,0.12-0.04,0.24-0.04,0.36v3.82c-0.18,0.06-0.35,0.15-0.5,0.27
			c-0.15,0.12-0.29,0.25-0.4,0.41c-0.11,0.16-0.2,0.32-0.25,0.51c-0.06,0.18-0.09,0.37-0.09,0.56v26.57c0,0.24,0.02,0.48,0.07,0.72
			c0.05,0.24,0.12,0.47,0.21,0.7c0.09,0.22,0.21,0.44,0.34,0.64c0.13,0.2,0.29,0.39,0.46,0.56c0.17,0.17,0.36,0.33,0.56,0.46
			c0.2,0.13,0.42,0.25,0.64,0.34c0.22,0.09,0.46,0.16,0.69,0.21c0.24,0.05,0.48,0.07,0.72,0.07h3.71c0.24,0,0.48-0.02,0.72-0.07
			c0.24-0.05,0.47-0.12,0.7-0.21c0.22-0.09,0.44-0.21,0.64-0.34c0.2-0.13,0.39-0.29,0.56-0.46s0.33-0.36,0.46-0.56
			c0.13-0.2,0.25-0.42,0.34-0.64c0.09-0.22,0.16-0.46,0.21-0.7c0.05-0.24,0.07-0.48,0.07-0.72V84.27c0-0.19-0.03-0.38-0.09-0.56
			c-0.06-0.18-0.14-0.35-0.25-0.51c-0.11-0.16-0.24-0.29-0.4-0.41c-0.15-0.11-0.32-0.2-0.5-0.27v-3.82c0-0.12-0.01-0.24-0.04-0.36
			c-0.02-0.12-0.06-0.24-0.11-0.35c-0.05-0.11-0.1-0.22-0.17-0.32c-0.07-0.1-0.14-0.19-0.23-0.28c-0.09-0.09-0.18-0.16-0.28-0.23
			c-0.1-0.07-0.21-0.13-0.32-0.17c-0.11-0.05-0.23-0.08-0.35-0.11c-0.12-0.02-0.24-0.04-0.36-0.04h-1.24V64.23
			c0.38-0.13,0.73-0.32,1.05-0.57C60.3,63.41,60.56,63.11,60.77,62.77z M60.79,85.5v2.47h-6.18V85.5H60.79z M59.56,79.33v3.09h-3.71
			v-3.09H59.56z"/>
	</g>
	<g>
		<linearGradient id="SVGID_4_" gradientUnits="userSpaceOnUse" x1="35.471" y1="44.1049" x2="101.9999" y2="44.1049">
			<stop  offset="0" style="stop-color:#BEA66C"/>
			<stop  offset="0.5008" style="stop-color:#E2CEA5"/>
			<stop  offset="1" style="stop-color:#BCA56B"/>
		</linearGradient>
		<path class="st3" d="M76.17,42.55c-0.04-0.11-0.09-0.21-0.15-0.3c-0.06-0.09-0.14-0.18-0.23-0.25c-0.09-0.07-0.18-0.13-0.29-0.18
			c-0.1-0.05-0.21-0.08-0.32-0.1l-2.76-0.42l-1.25-2.66c-0.05-0.11-0.11-0.2-0.19-0.29c-0.08-0.09-0.17-0.16-0.26-0.23
			c-0.1-0.06-0.2-0.11-0.32-0.14c-0.11-0.03-0.23-0.05-0.35-0.05c-0.12,0-0.23,0.02-0.35,0.05c-0.11,0.03-0.22,0.08-0.32,0.14
			c-0.1,0.06-0.19,0.14-0.26,0.23c-0.08,0.09-0.14,0.19-0.19,0.29l-1.25,2.66l-2.76,0.42c-0.11,0.02-0.22,0.05-0.32,0.1
			c-0.1,0.05-0.2,0.11-0.29,0.18c-0.09,0.07-0.16,0.16-0.23,0.25c-0.06,0.09-0.11,0.2-0.15,0.3c-0.04,0.11-0.06,0.22-0.06,0.33
			c-0.01,0.11,0,0.23,0.03,0.34c0.02,0.11,0.07,0.22,0.12,0.32c0.05,0.1,0.12,0.19,0.2,0.27l2.04,2.09l-0.48,2.96
			c-0.02,0.11-0.02,0.23-0.01,0.34c0.01,0.12,0.04,0.23,0.09,0.33c0.04,0.11,0.1,0.21,0.18,0.3c0.07,0.09,0.16,0.17,0.25,0.24
			c0.09,0.07,0.2,0.12,0.31,0.16c0.11,0.04,0.22,0.06,0.34,0.07c0.12,0.01,0.23,0,0.34-0.03c0.11-0.03,0.22-0.07,0.32-0.12
			l2.46-1.36l2.46,1.36c0.1,0.06,0.21,0.1,0.32,0.12c0.11,0.03,0.23,0.04,0.34,0.03c0.12-0.01,0.23-0.03,0.34-0.07
			c0.11-0.04,0.21-0.09,0.31-0.16c0.09-0.07,0.18-0.15,0.25-0.24c0.07-0.09,0.13-0.19,0.18-0.3c0.04-0.11,0.07-0.22,0.09-0.33
			c0.01-0.11,0.01-0.23-0.01-0.34l-0.48-2.96l2.04-2.09c0.08-0.08,0.15-0.17,0.2-0.27c0.05-0.1,0.09-0.2,0.12-0.32
			c0.03-0.11,0.04-0.22,0.03-0.34C76.23,42.76,76.21,42.65,76.17,42.55z M71.65,44.61c-0.14,0.14-0.24,0.3-0.29,0.49
			c-0.06,0.19-0.07,0.38-0.04,0.57l0.17,1.06l-0.83-0.46c-0.19-0.1-0.39-0.15-0.6-0.15c-0.21,0-0.41,0.05-0.6,0.15l-0.83,0.46
			l0.17-1.06c0.03-0.19,0.02-0.38-0.04-0.57c-0.06-0.19-0.16-0.35-0.29-0.49l-0.79-0.81l1.04-0.16c0.2-0.03,0.39-0.11,0.55-0.23
			c0.16-0.12,0.29-0.28,0.38-0.46l0.41-0.87l0.41,0.87c0.09,0.19,0.21,0.34,0.38,0.46c0.17,0.12,0.35,0.2,0.55,0.23l1.04,0.16
			L71.65,44.61z"/>
	</g>
	<g>
		<linearGradient id="SVGID_5_" gradientUnits="userSpaceOnUse" x1="35.4565" y1="75" x2="101.9855" y2="75">
			<stop  offset="0" style="stop-color:#BEA66C"/>
			<stop  offset="0.5008" style="stop-color:#E2CEA5"/>
			<stop  offset="1" style="stop-color:#BCA56B"/>
		</linearGradient>
		<path class="st4" d="M35.52,45.79c0.35,2.8,1.19,5.44,2.53,7.92c1.28,2.58,2.82,5.08,4.13,7.42c0.01,0.02,0.04,0.1,0.08,0.17
			v50.17c0,0.2,0.02,0.4,0.06,0.6c0.04,0.2,0.1,0.39,0.18,0.58c0.08,0.19,0.17,0.37,0.29,0.53c0.11,0.17,0.24,0.33,0.38,0.47
			c0.14,0.14,0.3,0.27,0.47,0.38c0.17,0.11,0.35,0.21,0.53,0.29c0.19,0.08,0.38,0.14,0.58,0.18c0.2,0.04,0.4,0.06,0.6,0.06h1.23
			c0.2,0,0.4-0.02,0.6-0.06c0.2-0.04,0.39-0.1,0.58-0.18c0.19-0.08,0.37-0.17,0.53-0.29c0.17-0.11,0.32-0.24,0.47-0.38
			c0.14-0.14,0.27-0.3,0.38-0.47c0.11-0.17,0.21-0.35,0.29-0.53c0.08-0.19,0.14-0.38,0.18-0.58c0.04-0.2,0.06-0.4,0.06-0.6V61.29
			l0.02-0.02c0.1-0.15,0.22-0.31,0.34-0.49c0.04-0.06,0.08-0.12,0.12-0.18c0.1-0.15,0.2-0.29,0.31-0.46c0.07-0.1,0.13-0.21,0.2-0.31
			c0.09-0.14,0.18-0.28,0.28-0.43c0.09-0.14,0.18-0.28,0.27-0.43c0.09-0.14,0.17-0.27,0.25-0.41c0.11-0.17,0.21-0.36,0.32-0.54
			c0.08-0.13,0.15-0.25,0.23-0.39c0.12-0.2,0.24-0.42,0.36-0.63c0.07-0.13,0.14-0.24,0.21-0.37c0.13-0.23,0.25-0.47,0.38-0.71
			c0.06-0.12,0.13-0.24,0.19-0.36c0.13-0.25,0.26-0.52,0.39-0.78c0.06-0.12,0.12-0.24,0.18-0.36c0.13-0.27,0.26-0.55,0.38-0.83
			c0.05-0.12,0.11-0.24,0.16-0.36c0.13-0.29,0.24-0.58,0.36-0.87c0.05-0.12,0.1-0.24,0.15-0.36c0.12-0.3,0.22-0.6,0.33-0.9
			c0.04-0.12,0.09-0.25,0.13-0.37c0.1-0.3,0.2-0.61,0.29-0.92c0.04-0.13,0.08-0.25,0.12-0.38c0.09-0.31,0.17-0.62,0.24-0.94
			c0.03-0.13,0.07-0.25,0.1-0.38c0.07-0.32,0.13-0.64,0.19-0.95c0.02-0.12,0.05-0.25,0.07-0.37c0.05-0.34,0.09-0.68,0.12-1.02
			c0.01-0.1,0.03-0.21,0.04-0.31c0.04-0.44,0.06-0.88,0.06-1.32c0.01-0.37-0.01-0.74-0.05-1.11c-0.04-0.37-0.11-0.73-0.21-1.09
			c-0.09-0.36-0.21-0.71-0.36-1.05c-0.14-0.34-0.31-0.67-0.5-0.99s-0.4-0.62-0.63-0.91c-0.23-0.29-0.48-0.56-0.75-0.82
			c-0.27-0.26-0.56-0.49-0.86-0.7c-0.3-0.22-0.62-0.41-0.95-0.58c-0.92-0.49-1.89-0.85-2.9-1.1c-1.01-0.24-2.04-0.36-3.08-0.34
			c-0.72-0.01-1.44,0.04-2.15,0.15c-0.71,0.11-1.42,0.27-2.1,0.49c-0.69,0.22-1.36,0.49-2,0.81c-0.64,0.32-1.26,0.7-1.85,1.12
			C35.67,39.85,35.27,43,35.52,45.79z M47.2,111.46c0,0.08-0.02,0.16-0.05,0.24c-0.03,0.08-0.08,0.14-0.13,0.2
			c-0.06,0.06-0.12,0.1-0.2,0.13c-0.08,0.03-0.15,0.05-0.24,0.05h-1.23c-0.08,0-0.16-0.02-0.24-0.05c-0.08-0.03-0.14-0.08-0.2-0.13
			c-0.06-0.06-0.1-0.12-0.13-0.2s-0.05-0.15-0.05-0.24V66.35h2.47V111.46z M47.2,63.88h-2.47v-2.47h2.47V63.88z M44.73,56.46
			c0-0.08,0.01-0.16,0.02-0.24c0.02-0.08,0.04-0.16,0.07-0.23c0.03-0.08,0.07-0.15,0.11-0.21c0.04-0.07,0.1-0.13,0.15-0.19
			c0.06-0.06,0.12-0.11,0.19-0.15c0.07-0.04,0.14-0.08,0.21-0.11c0.07-0.03,0.15-0.05,0.23-0.07c0.08-0.02,0.16-0.02,0.24-0.02
			c0.08,0,0.16,0.01,0.24,0.02c0.08,0.02,0.16,0.04,0.23,0.07c0.07,0.03,0.15,0.07,0.21,0.11c0.07,0.04,0.13,0.1,0.19,0.15
			c0.06,0.06,0.11,0.12,0.15,0.19c0.04,0.07,0.08,0.14,0.11,0.21c0.03,0.07,0.05,0.15,0.07,0.23c0.02,0.08,0.02,0.16,0.02,0.24v2.47
			c-0.79,0-1.68,0-2.47,0V56.46z"/>
	</g>
</g>
</svg>
