<?xml version="1.0" encoding="utf-8"?>
<!-- Generator: Adobe Illustrator 25.0.1, SVG Export Plug-In . SVG Version: 6.00 Build 0)  -->
<svg version="1.1" id="Layer_1" xmlns="http://www.w3.org/2000/svg" xmlns:xlink="http://www.w3.org/1999/xlink" x="0px" y="0px"
	 viewBox="0 0 150 150" style="enable-background:new 0 0 150 150;" xml:space="preserve">
<style type="text/css">
	.st0{fill:url(#SVGID_1_);}
	.st1{fill:url(#SVGID_2_);}
	.st2{fill:url(#SVGID_3_);}
	.st3{fill:url(#SVGID_4_);}
	.st4{fill:url(#SVGID_5_);}
	.st5{fill:url(#SVGID_6_);}
	.st6{fill:url(#SVGID_7_);}
	.st7{fill:url(#SVGID_8_);}
	.st8{fill:url(#SVGID_9_);}
	.st9{fill:url(#SVGID_10_);}
	.st10{fill:url(#SVGID_11_);}
	.st11{fill:url(#SVGID_12_);}
	.st12{fill:url(#SVGID_13_);}
	.st13{fill:url(#SVGID_14_);}
	.st14{fill:url(#SVGID_15_);}
	.st15{fill:url(#SVGID_16_);}
	.st16{fill:url(#SVGID_17_);}
	.st17{fill:url(#SVGID_18_);}
	.st18{fill:#FF2E39;}
	.st19{fill:url(#SVGID_19_);}
	.st20{fill:url(#SVGID_20_);}
	.st21{fill:url(#SVGID_21_);}
	.st22{fill:url(#SVGID_22_);}
	.st23{fill:url(#SVGID_23_);}
	.st24{fill:url(#SVGID_24_);}
	.st25{fill:url(#SVGID_25_);}
	.st26{fill:url(#SVGID_26_);}
</style>
<circle cx="75" cy="75" r="75"/>
<g>
	<g>
		<linearGradient id="SVGID_1_" gradientUnits="userSpaceOnUse" x1="38.4783" y1="75" x2="101.2091" y2="75">
			<stop  offset="0" style="stop-color:#BEA66C"/>
			<stop  offset="0.5008" style="stop-color:#E2CEA5"/>
			<stop  offset="1" style="stop-color:#BCA56B"/>
		</linearGradient>
		<path class="st0" d="M37.15,113.64l4.7-76.39l67.12-0.89l3.88,77.27L37.15,113.64z M47.46,43.14l-3.97,64.54l63.08,0L103.3,42.4
			L47.46,43.14z"/>
	</g>
	<g>
		<linearGradient id="SVGID_2_" gradientUnits="userSpaceOnUse" x1="38.4783" y1="54.9263" x2="101.2091" y2="54.9263">
			<stop  offset="0" style="stop-color:#BEA66C"/>
			<stop  offset="0.5008" style="stop-color:#E2CEA5"/>
			<stop  offset="1" style="stop-color:#BCA56B"/>
		</linearGradient>
		<path class="st1" d="M73.88,73.45c-0.62,0-1.27-0.03-1.92-0.09c-5.04-0.44-9.26-2.71-12.19-6.58c-7.9-10.39-4.43-29.58-4.28-30.39
			l7.82,1.46c-0.85,4.58-1.99,17.85,2.79,24.14c1.59,2.08,3.73,3.22,6.55,3.46c3,0.25,5.26-0.42,6.95-2.09
			c5.64-5.56,4.55-20.53,4.19-25.45l-0.07-0.95l7.93-0.54l0.06,0.91c0.52,7.05,1.72,23.55-6.54,31.69
			C82.2,71.97,78.4,73.45,73.88,73.45z"/>
	</g>
</g>
</svg>
