<?xml version="1.0" encoding="utf-8"?>
<!-- Generator: Adobe Illustrator 25.0.1, SVG Export Plug-In . SVG Version: 6.00 Build 0)  -->
<svg version="1.1" id="Layer_1" xmlns="http://www.w3.org/2000/svg" xmlns:xlink="http://www.w3.org/1999/xlink" x="0px" y="0px"
	 viewBox="0 0 150 150" style="enable-background:new 0 0 150 150;" xml:space="preserve">
<style type="text/css">
	.st0{fill:url(#SVGID_1_);}
	.st1{fill:url(#SVGID_2_);}
	.st2{fill:url(#SVGID_3_);}
	.st3{fill:url(#SVGID_4_);}
	.st4{fill:url(#SVGID_5_);}
	.st5{fill:url(#SVGID_6_);}
	.st6{fill:url(#SVGID_7_);}
	.st7{fill:url(#SVGID_8_);}
	.st8{fill:url(#SVGID_9_);}
	.st9{fill:url(#SVGID_10_);}
	.st10{fill:url(#SVGID_11_);}
	.st11{fill:url(#SVGID_12_);}
	.st12{fill:url(#SVGID_13_);}
	.st13{fill:url(#SVGID_14_);}
	.st14{fill:url(#SVGID_15_);}
	.st15{fill:url(#SVGID_16_);}
	.st16{fill:url(#SVGID_17_);}
	.st17{fill:url(#SVGID_18_);}
	.st18{fill:#FF2E39;}
	.st19{fill:url(#SVGID_19_);}
	.st20{fill:url(#SVGID_20_);}
	.st21{fill:url(#SVGID_21_);}
	.st22{fill:url(#SVGID_22_);}
	.st23{fill:url(#SVGID_23_);}
	.st24{fill:url(#SVGID_24_);}
	.st25{fill:url(#SVGID_25_);}
	.st26{fill:url(#SVGID_26_);}
</style>
<circle cx="75" cy="75" r="75"/>
<g>
	<g>
		<g>
			<linearGradient id="SVGID_1_" gradientUnits="userSpaceOnUse" x1="37.2464" y1="75" x2="103.7969" y2="75">
				<stop  offset="0" style="stop-color:#BEA66C"/>
				<stop  offset="0.5008" style="stop-color:#E2CEA5"/>
				<stop  offset="1" style="stop-color:#BCA56B"/>
			</linearGradient>
			<path class="st0" d="M108.06,61.65l-8.57-3.12c3.1-2.56,4.42-6.62,3.47-10.48c-1.86-7.58-11.11-10.46-16.95-5.3l-5.92,5.23
				l-1.17-7.84c-1.16-7.72-10.1-11.44-16.39-6.84c-3.15,2.3-4.82,6.27-4.08,10.29l-8.08-2.94c-3.98-1.45-8.39,0.61-9.83,4.59
				l-3.5,9.61c-0.48,1.33,0.2,2.79,1.53,3.28c0.54,0.2,39.4,14.34,39.97,14.55c-1.62,0-37.04,0-38.59,0c-1.41,0-2.56,1.15-2.56,2.56
				v35.8c0,4.23,3.44,7.67,7.67,7.67h20.46h10.23h20.46c4.23,0,7.67-3.44,7.67-7.67V81.9l1.98,0.72c1.32,0.48,2.79-0.2,3.28-1.53
				l3.5-9.61C114.09,67.51,112.03,63.09,108.06,61.65z M62.97,113.6h-17.9c-1.41,0-2.56-1.15-2.56-2.56V77.79h20.46V113.6z
				 M73.2,113.6h-5.11v-35.8h5.11V113.6z M89.4,46.58c2.97-2.62,7.65-1.15,8.59,2.69c1.01,4.09-2.95,7.64-6.91,6.2
				c-3.37-1.23-4.94-1.8-8.32-3.03L89.4,46.58z M65.56,37.43c3.2-2.34,7.72-0.44,8.31,3.47l1.31,8.78
				c-0.94-0.34-7.39-2.69-8.32-3.03C62.9,45.21,62.16,39.92,65.56,37.43z M66.76,62.95L42.73,54.2l2.62-7.21
				c0.48-1.33,1.95-2.01,3.28-1.53c2.69,0.98,20.8,7.57,21.63,7.87L66.76,62.95z M76.37,66.44l-4.81-1.75l3.5-9.61l4.81,1.75
				L76.37,66.44z M98.77,111.04c0,1.41-1.15,2.56-2.56,2.56h-17.9v-35.8H92.6l6.17,2.25L98.77,111.04L98.77,111.04z M107.84,69.73
				l-2.62,7.21l-24.03-8.75l3.5-9.61l21.63,7.87C107.63,66.94,108.32,68.41,107.84,69.73z"/>
		</g>
	</g>
</g>
</svg>
