<?xml version="1.0" encoding="utf-8"?>
<!-- Generator: Adobe Illustrator 25.0.1, SVG Export Plug-In . SVG Version: 6.00 Build 0)  -->
<svg version="1.1" id="Layer_1" xmlns="http://www.w3.org/2000/svg" xmlns:xlink="http://www.w3.org/1999/xlink" x="0px" y="0px"
	 viewBox="0 0 150 150" style="enable-background:new 0 0 150 150;" xml:space="preserve">
<style type="text/css">
	.st0{fill:url(#SVGID_1_);}
	.st1{fill:url(#SVGID_2_);}
	.st2{fill:url(#SVGID_3_);}
	.st3{fill:url(#SVGID_4_);}
	.st4{fill:url(#SVGID_5_);}
	.st5{fill:url(#SVGID_6_);}
	.st6{fill:url(#SVGID_7_);}
	.st7{fill:url(#SVGID_8_);}
	.st8{fill:url(#SVGID_9_);}
	.st9{fill:url(#SVGID_10_);}
	.st10{fill:url(#SVGID_11_);}
	.st11{fill:url(#SVGID_12_);}
	.st12{fill:url(#SVGID_13_);}
	.st13{fill:url(#SVGID_14_);}
	.st14{fill:url(#SVGID_15_);}
	.st15{fill:url(#SVGID_16_);}
	.st16{fill:url(#SVGID_17_);}
	.st17{fill:url(#SVGID_18_);}
	.st18{fill:#FF2E39;}
	.st19{fill:url(#SVGID_19_);}
	.st20{fill:url(#SVGID_20_);}
	.st21{fill:url(#SVGID_21_);}
	.st22{fill:url(#SVGID_22_);}
	.st23{fill:url(#SVGID_23_);}
	.st24{fill:url(#SVGID_24_);}
	.st25{fill:url(#SVGID_25_);}
	.st26{fill:url(#SVGID_26_);}
</style>
<circle cx="75" cy="75" r="75"/>
<g>
	<g>
		<g>
			<g>
				<linearGradient id="SVGID_1_" gradientUnits="userSpaceOnUse" x1="35.8333" y1="59.4502" x2="110.1812" y2="59.4502">
					<stop  offset="0" style="stop-color:#BEA66C"/>
					<stop  offset="0.5008" style="stop-color:#E2CEA5"/>
					<stop  offset="1" style="stop-color:#BCA56B"/>
				</linearGradient>
				<path class="st0" d="M75,79.78c-11.21,0-20.33-9.12-20.33-20.33S63.79,39.12,75,39.12s20.33,9.12,20.33,20.33
					S86.21,79.78,75,79.78z M75,45.08c-7.92,0-14.37,6.45-14.37,14.37S67.08,73.82,75,73.82s14.37-6.45,14.37-14.37
					S82.92,45.08,75,45.08z"/>
			</g>
		</g>
	</g>
	<g>
		<g>
			<g>
				<linearGradient id="SVGID_2_" gradientUnits="userSpaceOnUse" x1="35.8333" y1="94.2772" x2="110.1812" y2="94.2772">
					<stop  offset="0" style="stop-color:#BEA66C"/>
					<stop  offset="0.5008" style="stop-color:#E2CEA5"/>
					<stop  offset="1" style="stop-color:#BCA56B"/>
				</linearGradient>
				<path class="st1" d="M101.99,110.88H48.01c-2.71,0-4.91-2.2-4.91-4.91c0-7.49,2.91-14.57,8.19-19.93
					c5.31-5.39,12.36-8.37,19.85-8.37h7.71c7.49,0,14.54,2.97,19.85,8.37l0,0c5.28,5.36,8.18,12.44,8.18,19.93
					C106.9,108.68,104.69,110.88,101.99,110.88z M49.09,104.92h51.82c-0.26-5.53-2.52-10.71-6.45-14.7
					c-4.18-4.25-9.73-6.59-15.61-6.59h-7.71c-5.88,0-11.42,2.34-15.61,6.59C51.61,94.21,49.34,99.39,49.09,104.92z"/>
			</g>
		</g>
	</g>
</g>
</svg>
