<?xml version="1.0" encoding="utf-8"?>
<!-- Generator: Adobe Illustrator 25.0.1, SVG Export Plug-In . SVG Version: 6.00 Build 0)  -->
<svg version="1.1" id="Layer_1" xmlns="http://www.w3.org/2000/svg" xmlns:xlink="http://www.w3.org/1999/xlink" x="0px" y="0px"
	 viewBox="0 0 150 150" style="enable-background:new 0 0 150 150;" xml:space="preserve">
<style type="text/css">
	.st0{fill:url(#SVGID_1_);}
	.st1{fill:url(#SVGID_2_);}
	.st2{fill:url(#SVGID_3_);}
	.st3{fill:url(#SVGID_4_);}
	.st4{fill:url(#SVGID_5_);}
	.st5{fill:url(#SVGID_6_);}
	.st6{fill:url(#SVGID_7_);}
	.st7{fill:url(#SVGID_8_);}
	.st8{fill:url(#SVGID_9_);}
	.st9{fill:url(#SVGID_10_);}
	.st10{fill:url(#SVGID_11_);}
	.st11{fill:url(#SVGID_12_);}
	.st12{fill:url(#SVGID_13_);}
	.st13{fill:url(#SVGID_14_);}
	.st14{fill:url(#SVGID_15_);}
	.st15{fill:url(#SVGID_16_);}
	.st16{fill:url(#SVGID_17_);}
	.st17{fill:url(#SVGID_18_);}
	.st18{fill:#FF2E39;}
	.st19{fill:url(#SVGID_19_);}
	.st20{fill:url(#SVGID_20_);}
	.st21{fill:url(#SVGID_21_);}
	.st22{fill:url(#SVGID_22_);}
	.st23{fill:url(#SVGID_23_);}
	.st24{fill:url(#SVGID_24_);}
	.st25{fill:url(#SVGID_25_);}
	.st26{fill:url(#SVGID_26_);}
</style>
<circle cx="75" cy="75" r="75"/>
<g>
	<g>
		<g>
			<g>
				<linearGradient id="SVGID_1_" gradientUnits="userSpaceOnUse" x1="31.0145" y1="86.334" x2="104.4101" y2="86.334">
					<stop  offset="0" style="stop-color:#BEA66C"/>
					<stop  offset="0.5008" style="stop-color:#E2CEA5"/>
					<stop  offset="1" style="stop-color:#BCA56B"/>
				</linearGradient>
				<path class="st0" d="M72.18,125H35.3c-1.42,0-2.57-1.15-2.57-2.57V51.04c0-1.35,1.03-2.46,2.38-2.56
					c14.28-1.08,26.49-1.07,37.33,0c1.31,0.13,2.31,1.24,2.31,2.56v71.39C74.75,123.85,73.6,125,72.18,125z M37.87,119.86h31.74
					V53.38c-9.35-0.78-19.77-0.77-31.74,0.05V119.86z"/>
			</g>
			<g>
				<linearGradient id="SVGID_2_" gradientUnits="userSpaceOnUse" x1="31.0145" y1="38.2411" x2="104.4101" y2="38.2411">
					<stop  offset="0" style="stop-color:#BEA66C"/>
					<stop  offset="0.5008" style="stop-color:#E2CEA5"/>
					<stop  offset="1" style="stop-color:#BCA56B"/>
				</linearGradient>
				<path class="st1" d="M67.01,51.48l-5.14-0.11l0.43-20.61c-5.09-0.85-10.98-0.83-16.7,0.06l-0.39,20.14l-5.14-0.1L40.5,28.6
					c0.02-1.21,0.89-2.24,2.08-2.47c7.79-1.51,16.13-1.51,22.9,0.01c1.19,0.27,2.03,1.34,2,2.56L67.01,51.48z"/>
			</g>
		</g>
	</g>
	<g>
		<g>
			<g>
				<linearGradient id="SVGID_3_" gradientUnits="userSpaceOnUse" x1="31.0145" y1="88.5047" x2="104.4101" y2="88.5047">
					<stop  offset="0" style="stop-color:#BEA66C"/>
					<stop  offset="0.5008" style="stop-color:#E2CEA5"/>
					<stop  offset="1" style="stop-color:#BCA56B"/>
				</linearGradient>
				<path class="st2" d="M114.7,125H80.04c-1.42,0-2.57-1.15-2.57-2.57v-67.1c0-1.35,1.03-2.46,2.38-2.56
					c13.45-1.01,24.93-1.01,35.11,0c1.31,0.13,2.31,1.24,2.31,2.56v67.1C117.27,123.85,116.12,125,114.7,125z M82.61,119.86h29.53
					V57.68c-8.69-0.72-18.4-0.7-29.53,0.05V119.86z"/>
			</g>
			<g>
				<linearGradient id="SVGID_4_" gradientUnits="userSpaceOnUse" x1="31.0145" y1="43.2294" x2="104.4101" y2="43.2294">
					<stop  offset="0" style="stop-color:#BEA66C"/>
					<stop  offset="0.5008" style="stop-color:#E2CEA5"/>
					<stop  offset="1" style="stop-color:#BCA56B"/>
				</linearGradient>
				<path class="st3" d="M110,55.75l-5.14-0.11l0.4-19.24c-4.71-0.77-10.13-0.74-15.38,0.06l-0.36,18.8l-5.14-0.1l0.4-20.92
					c0.02-1.21,0.89-2.24,2.08-2.47c7.34-1.42,15.21-1.42,21.58,0.01c1.19,0.27,2.03,1.34,2,2.56L110,55.75z"/>
			</g>
		</g>
	</g>
</g>
</svg>
