<?xml version="1.0" encoding="utf-8"?>
<!-- Generator: Adobe Illustrator 25.0.1, SVG Export Plug-In . SVG Version: 6.00 Build 0)  -->
<svg version="1.1" id="Layer_1" xmlns="http://www.w3.org/2000/svg" xmlns:xlink="http://www.w3.org/1999/xlink" x="0px" y="0px"
	 viewBox="0 0 150 150" style="enable-background:new 0 0 150 150;" xml:space="preserve">
<style type="text/css">
	.st0{fill:url(#SVGID_1_);}
	.st1{fill:url(#SVGID_2_);}
	.st2{fill:url(#SVGID_3_);}
	.st3{fill:url(#SVGID_4_);}
	.st4{fill:url(#SVGID_5_);}
	.st5{fill:url(#SVGID_6_);}
	.st6{fill:url(#SVGID_7_);}
	.st7{fill:url(#SVGID_8_);}
	.st8{fill:url(#SVGID_9_);}
	.st9{fill:url(#SVGID_10_);}
	.st10{fill:url(#SVGID_11_);}
	.st11{fill:url(#SVGID_12_);}
	.st12{fill:url(#SVGID_13_);}
	.st13{fill:url(#SVGID_14_);}
	.st14{fill:url(#SVGID_15_);}
	.st15{fill:url(#SVGID_16_);}
	.st16{fill:url(#SVGID_17_);}
	.st17{fill:url(#SVGID_18_);}
	.st18{fill:#FF2E39;}
	.st19{fill:url(#SVGID_19_);}
	.st20{fill:url(#SVGID_20_);}
	.st21{fill:url(#SVGID_21_);}
	.st22{fill:url(#SVGID_22_);}
	.st23{fill:url(#SVGID_23_);}
	.st24{fill:url(#SVGID_24_);}
	.st25{fill:url(#SVGID_25_);}
	.st26{fill:url(#SVGID_26_);}
</style>
<circle cx="75" cy="75" r="75"/>
<g>
	<g>
		<linearGradient id="SVGID_1_" gradientUnits="userSpaceOnUse" x1="23.8116" y1="70.95" x2="102.1275" y2="70.95">
			<stop  offset="0" style="stop-color:#BEA66C"/>
			<stop  offset="0.5008" style="stop-color:#E2CEA5"/>
			<stop  offset="1" style="stop-color:#BCA56B"/>
		</linearGradient>
		<path class="st0" d="M74.42,50.61c10.85,0,21.71,0,32.56-0.01c0.94,0,1.84,0.05,2.67,0.56c1.03,0.64,1.69,1.94,1.48,3.13
			c-0.75,4.24-1.52,8.47-2.27,12.71c-0.93,5.26-1.86,10.53-2.77,15.79c-0.07,0.42-0.18,0.84-0.29,1.26
			c-0.44,1.77-1.4,2.65-3.19,2.79c-3.49,0.29-6.99,0.52-10.49,0.81c-3.73,0.31-7.46,0.67-11.2,1c-1.59,0.14-3.18,0.27-4.78,0.39
			c-3.81,0.28-7.61,0.54-11.41,0.84c-4.72,0.36-9.44,0.74-14.16,1.13c-1.16,0.09-2.32,0.28-3.49,0.3c-1.66,0.02-2.82-0.89-3.16-2.53
			c-0.54-2.65-0.99-5.31-1.47-7.97c-1.09-5.98-2.17-11.97-3.26-17.95c-0.49-2.72-0.99-5.44-1.47-8.16c-0.39-2.24,1.07-4,3.38-4.07
			c0.99-0.03,1.97-0.01,2.96-0.01L74.42,50.61z M61.01,66.12h-3.14c-0.06,0-0.13,0-0.18,0c-1.56-0.01-1.72-0.2-1.59,1.57
			c0.15,2.08,0.3,4.17,0.47,6.25c0.08,0.9,0.28,1.06,1.16,1c1.47-0.09,2.94-0.2,4.4-0.3c0.98-0.07,1.95-0.19,2.93-0.25
			c0.63-0.04,1.08-0.14,0.82-0.96c-0.11-0.34-0.04-0.73-0.04-1.1c-0.03-1.78-0.07-3.57-0.07-5.35c0-0.64-0.27-0.87-0.89-0.85
			C63.59,66.13,62.3,66.12,61.01,66.12z M74.76,54.66c-1.47,0-2.95,0.02-4.42-0.01c-0.62-0.01-0.9,0.2-0.87,0.85
			c0.11,2.08,0.2,4.17,0.29,6.25c0.02,0.45,0.28,0.63,0.71,0.63c0.74-0.01,1.48,0,2.21,0c2.03,0,4.06-0.01,6.08,0
			c0.57,0,0.98-0.19,0.99-0.81c0.05-2.09,0.08-4.18,0.1-6.27c0-0.44-0.23-0.66-0.69-0.65C77.72,54.67,76.24,54.66,74.76,54.66z
			 M89.48,54.66c-1.48,0-2.95,0.01-4.42,0c-0.65-0.01-1.08,0.2-1.09,0.92c-0.03,2.03-0.06,4.06-0.09,6.09
			c-0.01,0.57,0.28,0.73,0.8,0.73c2.83-0.01,5.65,0,8.48,0c0.42,0,0.72-0.15,0.75-0.61c0.15-2.08,0.3-4.16,0.46-6.24
			c0.05-0.62-0.18-0.9-0.83-0.89C92.19,54.68,90.83,54.66,89.48,54.66z M60.33,54.66c-1.48,0-2.95-0.02-4.43,0.01
			c-0.89,0.01-0.94,0.05-0.89,0.97c0.12,1.96,0.3,3.92,0.44,5.87c0.05,0.72,0.48,0.89,1.13,0.89c2.64-0.02,5.29-0.02,7.93,0.01
			c0.71,0.01,1-0.23,0.99-0.95c-0.05-1.97-0.09-3.94-0.08-5.91c0-0.78-0.39-0.91-1.03-0.9C63.04,54.67,61.68,54.66,60.33,54.66z
			 M74.82,66.12c-1.35,0-2.71,0.01-4.06-0.01c-0.57-0.01-0.95,0.11-0.91,0.8c0.11,2.21,0.2,4.42,0.3,6.64
			c0.02,0.44,0.23,0.67,0.7,0.64c2.21-0.13,4.42-0.24,6.63-0.37c0.43-0.03,0.85-0.16,1.27-0.2c0.56-0.05,0.7-0.38,0.7-0.88
			c0.02-1.9,0.02-3.82,0.09-5.73c0.03-0.79-0.36-0.92-1.01-0.91C77.29,66.13,76.06,66.12,74.82,66.12z M88.67,66.12
			c-1.42,0-2.83,0.01-4.25,0c-0.5,0-0.82,0.13-0.82,0.72c-0.02,1.97-0.06,3.94-0.09,5.92c-0.01,0.56,0.25,0.74,0.81,0.7
			c1.9-0.13,3.8-0.21,5.7-0.33c0.73-0.05,1.46-0.18,2.19-0.24c0.46-0.03,0.64-0.29,0.71-0.69c0.08-0.48,0.16-0.97,0.21-1.45
			c0.11-1.22,0.19-2.45,0.32-3.67c0.08-0.8,0.01-0.92-0.89-0.94C91.26,66.1,89.97,66.12,88.67,66.12L88.67,66.12z M48.02,66.12
			c-0.87,0-1.73-0.01-2.59,0c-1.26,0.02-1.33,0.04-1.15,1.24c0.36,2.43,0.79,4.85,1.21,7.27c0.08,0.44,0.29,0.83,0.84,0.81
			c1.72-0.06,3.45-0.08,5.17-0.21c0.91-0.07,1.02-0.25,0.96-1.2c-0.13-2.15-0.32-4.3-0.49-6.45c-0.01-0.18-0.13-0.35-0.14-0.54
			c-0.05-0.66-0.32-0.98-1.05-0.94C49.87,66.16,48.95,66.12,48.02,66.12L48.02,66.12z M66.22,82.03h-0.1c0-1.05,0.01-2.1,0-3.15
			c-0.01-0.62-0.33-0.86-0.96-0.76c-0.73,0.1-1.47,0.14-2.2,0.19c-1.65,0.11-3.31,0.24-4.97,0.32c-0.66,0.03-0.85,0.33-0.8,0.93
			c0.16,2.02,0.31,4.05,0.47,6.07c0.05,0.64,0.52,0.6,0.95,0.57c2.27-0.15,4.54-0.32,6.81-0.45c0.66-0.04,0.83-0.37,0.82-0.95
			C66.21,83.88,66.22,82.95,66.22,82.03z M46.37,54.66c-1.17,0-2.33,0.02-3.5-0.01c-0.66-0.01-0.89,0.25-0.77,0.89
			c0.37,1.98,0.75,3.96,1.08,5.95c0.12,0.7,0.48,0.91,1.13,0.9c2.09-0.02,4.17-0.02,6.26,0c0.67,0.01,0.85-0.32,0.8-0.91
			c-0.16-1.95-0.32-3.91-0.45-5.86c-0.05-0.68-0.35-0.99-1.04-0.97C48.7,54.68,47.54,54.66,46.37,54.66z M79.16,81.2
			c0-1.15,0.01-2.2,0-3.25c0-0.43-0.2-0.61-0.7-0.57c-1.72,0.13-3.44,0.18-5.16,0.28c-0.79,0.05-1.58,0.2-2.38,0.25
			c-0.57,0.03-0.71,0.32-0.7,0.84c0.04,1.73,0.05,3.46,0.09,5.19c0.01,0.3,0.04,0.64,0.19,0.89c0.13,0.21,0.44,0.44,0.66,0.43
			c1.54-0.07,3.07-0.16,4.6-0.32c1.08-0.11,2.15-0.34,3.22-0.52C79.03,83.3,79.1,82.2,79.16,81.2z M83.22,80.79h-0.05
			c0,0.8-0.01,1.6,0,2.4c0.01,1.07,0.03,1.12,0.99,1.04c2.39-0.19,4.77-0.44,7.15-0.66c0.41-0.04,0.68-0.17,0.72-0.65
			c0.13-1.71,0.3-3.43,0.4-5.14c0.06-1.09-0.09-1.19-1.12-1.09c-0.61,0.06-1.22,0.11-1.84,0.13c-1.29,0.05-2.59,0.02-3.87,0.13
			c-2.35,0.21-2.35,0.24-2.39,2.54C83.21,79.92,83.22,80.35,83.22,80.79L83.22,80.79z M102.83,54.66c-0.99,0-1.97-0.01-2.96,0
			c-1.09,0.02-1.17,0.02-1.3,1.06c-0.25,1.95-0.38,3.91-0.57,5.87c-0.05,0.53,0.15,0.81,0.71,0.8c1.97-0.01,3.94-0.01,5.91,0.01
			c0.68,0.01,1-0.27,1.11-0.94c0.33-2,0.7-3.99,1.06-5.98c0.1-0.54-0.05-0.83-0.63-0.82C105.05,54.67,103.94,54.66,102.83,54.66z
			 M53.51,85.54c-0.13-1.78-0.26-3.56-0.41-5.34c-0.02-0.24-0.15-0.47-0.18-0.72c-0.06-0.54-0.34-0.72-0.87-0.68
			c-1.53,0.12-3.07,0.2-4.6,0.3c-0.96,0.06-1.08,0.18-0.92,1.12c0.35,2.06,0.74,4.11,1.1,6.17c0.09,0.51,0.35,0.78,0.87,0.74
			c1.29-0.1,2.57-0.21,3.86-0.3C53.57,86.74,53.57,86.74,53.51,85.54L53.51,85.54z M101.32,66.12c-0.99,0-1.97,0.01-2.96,0
			c-0.54-0.01-0.75,0.24-0.79,0.77c-0.13,1.65-0.29,3.3-0.44,4.96c-0.06,0.72,0.09,0.89,0.76,0.84c0.98-0.07,1.96-0.18,2.94-0.24
			c0.74-0.05,1.49,0,2.21-0.1c0.29-0.04,0.73-0.35,0.78-0.6c0.33-1.56,0.57-3.14,0.84-4.72c0.1-0.61-0.1-0.93-0.76-0.91
			C103.05,66.14,102.18,66.12,101.32,66.12z M97.36,83.16c1.33-0.13,2.55-0.25,3.77-0.35c0.5-0.04,0.81-0.25,0.89-0.76
			c0.31-1.82,0.62-3.63,0.9-5.45c0.02-0.14-0.21-0.47-0.32-0.46c-1.84,0.08-3.68,0.19-5.52,0.32c-0.46,0.03-0.52,0.43-0.55,0.82
			c-0.12,1.47-0.25,2.94-0.37,4.41c-0.02,0.31-0.1,0.63,0,0.91c0.07,0.22,0.33,0.44,0.56,0.54C96.94,83.23,97.22,83.16,97.36,83.16z
			"/>
	</g>
	<g>
		<linearGradient id="SVGID_2_" gradientUnits="userSpaceOnUse" x1="23.8116" y1="69.2928" x2="102.1275" y2="69.2928">
			<stop  offset="0" style="stop-color:#BEA66C"/>
			<stop  offset="0.5008" style="stop-color:#E2CEA5"/>
			<stop  offset="1" style="stop-color:#BCA56B"/>
		</linearGradient>
		<path class="st1" d="M75.91,103.21c-9.44,0-18.88-0.02-28.32,0.02c-1.9,0.01-3.48-0.55-4.79-1.93c-1.85-1.94-1.99-5.02-0.67-7.4
			c0.48-0.86,1.01-1.7,1.43-2.58c0.21-0.44,0.28-0.9,0.22-1.38c-1.26-7.08-2.56-14.15-3.82-21.23c-1.17-6.54-2.29-13.08-3.43-19.62
			c-0.38-2.18-0.78-4.36-1.13-6.54c-0.14-0.83-0.51-1.27-1.38-1.41c-2.43-0.4-4.84-0.88-7.25-1.32c-0.72-0.13-1.46-0.23-2.18-0.39
			c-1.14-0.25-1.86-1.21-1.74-2.26c0.13-1.1,1.14-1.93,2.39-1.78c1.52,0.19,3.03,0.5,4.54,0.77c2.66,0.48,5.31,0.99,7.97,1.45
			c0.64,0.11,0.95,0.37,1.06,1.03c0.3,1.82,0.67,3.62,1,5.44c0.98,5.38,1.96,10.76,2.91,16.15c1.18,6.72,2.32,13.45,3.49,20.17
			c0.57,3.27,1.19,6.53,1.79,9.78c0.16,0.86,0.14,1.63-0.39,2.41c-0.72,1.07-1.19,2.3-1.9,3.38c-0.85,1.29-0.08,3.33,1.88,3.15
			c0.43-0.04,0.86,0,1.29,0h55.16c0.49,0,0.99-0.04,1.48,0.03c0.13,0.02,0.26,0.05,0.38,0.09c0.12,0.04,0.24,0.1,0.36,0.16
			c0.11,0.07,0.22,0.14,0.32,0.23s0.19,0.18,0.27,0.29c0.08,0.1,0.15,0.21,0.21,0.33c0.06,0.12,0.11,0.24,0.14,0.37
			c0.04,0.13,0.06,0.26,0.07,0.39c0.01,0.13,0.01,0.26,0,0.39c-0.1,1.11-0.76,1.73-1.94,1.8c-0.49,0.03-0.99,0.01-1.48,0.01
			L75.91,103.21z"/>
	</g>
	<g>
		<linearGradient id="SVGID_3_" gradientUnits="userSpaceOnUse" x1="23.8116" y1="111.7748" x2="102.1275" y2="111.7748">
			<stop  offset="0" style="stop-color:#BEA66C"/>
			<stop  offset="0.5008" style="stop-color:#E2CEA5"/>
			<stop  offset="1" style="stop-color:#BCA56B"/>
		</linearGradient>
		<path class="st2" d="M92.06,111.8c-0.25-3.18,2.79-6.9,6.72-6.83c3.74,0.06,6.84,2.68,6.89,6.67c0.05,3.76-2.54,6.95-6.81,6.95
			C94.42,118.58,91.91,114.88,92.06,111.8z M98.91,108.68c-1.85,0-3.2,1.33-3.16,3.12c0.03,1.72,1.49,3.12,3.25,3.12
			c1.44,0,3.03-1.69,3.02-3.2C102,110.1,100.56,108.68,98.91,108.68L98.91,108.68z"/>
	</g>
	<g>
		<g>
			<linearGradient id="SVGID_4_" gradientUnits="userSpaceOnUse" x1="23.8116" y1="111.7874" x2="102.1275" y2="111.7874">
				<stop  offset="0" style="stop-color:#BEA66C"/>
				<stop  offset="0.5008" style="stop-color:#E2CEA5"/>
				<stop  offset="1" style="stop-color:#BCA56B"/>
			</linearGradient>
			<path class="st3" d="M60.66,111.82c-0.01,3.72-3.04,6.84-6.61,6.82c-3.9-0.02-6.78-3.03-6.89-6.95c-0.1-3.63,3.17-6.79,6.81-6.76
				C57.46,104.96,60.98,108.17,60.66,111.82z M56.97,111.99c0.08-1.78-1.09-3.2-2.72-3.3c-1.86-0.11-3.25,1.1-3.37,2.85
				c-0.12,1.8,1.09,3.23,2.92,3.33c0.2,0.01,0.4,0.01,0.6-0.02c0.2-0.03,0.39-0.07,0.58-0.14c0.19-0.07,0.37-0.15,0.54-0.25
				c0.17-0.1,0.33-0.22,0.48-0.35c0.15-0.13,0.28-0.28,0.4-0.44c0.12-0.16,0.22-0.33,0.3-0.51c0.08-0.18,0.15-0.37,0.19-0.56
				S56.96,112.19,56.97,111.99z"/>
		</g>
	</g>
</g>
</svg>
