<svg xmlns="http://www.w3.org/2000/svg" viewBox="0 0 400 400"><defs><style>.cls-1{fill:#231f20;}</style></defs><g id="Layer_5" data-name="Layer 5"><path class="cls-1" d="M384.2,172.39c-.38,48-.65,118.64-1,166a14.84,14.84,0,0,1-.57,7c-2.64,7.78-11.33,7.41-18.11,7.8-9.33.4-18.67.64-28,.83-25.65.54-51.35,1-77,.9l-3.49,0h-.85c-3.89.17-8.33-1.82-9.47-5.83-.67-1.6-.45-4.73-.47-6.46.08-25.45.2-72.68.23-98-.08-16.11.15-40.09-.62-56-.32-5.79-.69-11.67-.86-17.47-.33-7,5.17-12.12,12-12.44,2-.2,5-.09,7-.14,13.6.1,28.51-.39,42-.33,21.27-.14,42.87-.5,63.7-1.1,9,.47,16,5.48,15.47,15.25Zm-2.34,0c.84-11.93-11.24-14.44-20.79-13.22-23.34-.34-46.69-.87-70-.8-8.13.22-19.71,1.35-27.93,2-1,.12-4.2.3-5.23.4-4.79.16-9.8,2.4-11.15,7.31-.57,1.74-.49,4.75-.53,6.59-1.23,21.69-.63,48.14-.41,70,.34,25.28,1.19,72.6,1.58,98,.11,2.37-.22,4.61.74,6.37,1.28,2.87,5,3.67,7.91,3.46,2.13,0,8.28.05,10.51,0,32.65.2,65.33,1.05,98,.19,6.51-.32,15.36.16,17.82-7.42a14.34,14.34,0,0,0,.53-6.82c0-13.85-.16-27.7-.24-41.55-.21-26.35-.61-97.3-.75-124.55Z"/><path class="cls-1" d="M388.06,284.52c-.16,9.14-.78,18.27-1.68,27.37l-.49,4.55c-.2,1.51-.37,3-.6,4.54l-.17,0c.06-6,.44-12.29.89-18.26s1.05-12.15,1.89-18.2l.16,0Z"/><path class="cls-1" d="M390.11,272a3.2,3.2,0,0,1,0,3.7h-.17a3.23,3.23,0,0,1,0-3.7Z"/><path class="cls-1" d="M379.81,182.8c.62,9.13.69,18.4.44,27.54l-.16,4.59c-.1,1.53-.15,3.06-.28,4.59h-.17c-.63-9.13-.69-18.4-.44-27.54l.16-4.59c.09-1.53.15-3.06.28-4.59Z"/><path class="cls-1" d="M262.42,169.43c31.67-1.92,63.48-3,95.18-.76,7.23-.11,13,3.9,12.48,12.2-.1,15.12-.33,51.49-.43,67-.15,19.54-.15,39.45-.2,59a45.82,45.82,0,0,1-.15,5.36c-1.16,8.22-7.58,12-15.46,11.55-24.19.84-61.39,2.51-85.31,3h.14a6.6,6.6,0,0,1-1.63-.05l-.75-.15c-7-2.1-7.93-10.66-7.88-16.89l-.24-20.3c-.28-33.57-.94-67.85-.16-101.48,0-3.39.11-6.77.11-10.16.13-3.08.46-7.94,4.3-8.4Zm0,.32c-6.18.78-3.65,13.79-3.8,18.21,1.83,33.6,2.23,67.86,2.37,101.45l.11,20.29c0,5,.15,12,5.34,14.3a5,5,0,0,0,2,.31c10.65-.21,32-.39,42.68-.47l42.69-.18h2.67c6.69-.25,12-4.58,12.75-11.38a47.51,47.51,0,0,0,.12-5.35c-.09-19.57-.12-39.46-.32-59-.14-15.65-.42-51.76-.56-67,.34-7-4.11-10.56-11-10.37-31.65-1.68-63.39-1.49-95.08-.76Z"/><path class="cls-1" d="M254.31,95.88c-.17,8.49-.36,17.92-.56,26.45-.07,2.94-.05,5.88-.08,8.82-.57,2.88,1.59,4.87,4.39,4.9,11.86-.1,26.22-1.32,38.17-2,15.17-.92,30.71-1.24,45.87-1.19q15.42-.06,30.84.18c1.26.22,2.06-1.41,2.33-2.6.52-1.35.31-3.55.37-5l-.08-10.31c-.07-6.89-.25-13.77-.47-20.65-.43-1.74-2.35-2.46-4-2.56-9.83,0-19.67.17-29.5.35-22.79.44-46.73.68-69.54.51-4.63,0-9.27-.08-13.9-.14-2-.17-4,1-3.86,3.23Zm-1.34,0c-.15-3.1,2.51-4.92,5.2-4.76,13.37-.23,28.26-.19,41.72-.15,23,.1,46.52.8,69.53.92,2.12-.16,5,.23,5.69,2.6.27,6.88.58,13.76,1,20.64l.66,10.32c.13,2.65.52,5.67-1.16,8a3.24,3.24,0,0,1-3.09,1.35l.22,0c-10.18.57-20.37,1-30.56,1.36-15.13.63-30.69.9-45.86.57-10.52-.29-24-.66-34.44-.63-3.72.18-8.91.25-8.26-5,0-2.91,0-5.88-.09-8.81-.13-8.55-.46-18-.56-26.45Z"/><path class="cls-1" d="M275.83,97.58c9.42-.62,18.84-.55,28.26-.3q7.05.16,14.11.52c4.7.24,9.41.55,14.1,1v.17c-9.42.43-18.83.45-28.25.3-4.71,0-9.41-.22-14.12-.42s-9.4-.54-14.1-1.07v-.17Z"/><path class="cls-1" d="M343.41,98.18c1.13-.42,2.69-.57,3.37.59l0,.17c-1,.85-2.45.18-3.37-.6l0-.16Z"/><path class="cls-1" d="M339.92,136.12a45.49,45.49,0,0,1,.87,14.85,27.63,27.63,0,0,1-.87,4.95h-.17a43.13,43.13,0,0,1-.85-14.85,30.52,30.52,0,0,1,.85-4.95Z"/><path class="cls-1" d="M288.6,136.11a37.94,37.94,0,0,1,1.6,14.82,26.11,26.11,0,0,1-.81,5h-.17a34.83,34.83,0,0,1-1.57-9.85,40.2,40.2,0,0,1,.78-9.93l.17,0Z"/><path class="cls-1" d="M379.81,107.17a52.05,52.05,0,0,1,.58,12.34,27.66,27.66,0,0,1-.58,4.11h-.17a44.69,44.69,0,0,1-.53-12.33,36.57,36.57,0,0,1,.53-4.12Z"/><path class="cls-1" d="M347.9,197c-10.52,1.07-21.1,2.06-31.69,1.53-4.19-.08-8.15-2.07-12.32-1.75a11.6,11.6,0,0,0-5.52,1.5c-1.64.85-3.42,1.49-5.27.64a5.14,5.14,0,0,0-5.47-.35l-.77.4-.1,0a5.75,5.75,0,0,1-4.18-.16,6,6,0,0,0-2.66-1.31,4.29,4.29,0,0,0-2.87.49l-.1-.14a4.39,4.39,0,0,1,3-.88,6.5,6.5,0,0,1,3,1.09c.88.47,2.89.05,3.3-.11a12,12,0,0,1,1.73-.93,6.63,6.63,0,0,1,4-.4,5.14,5.14,0,0,1,2,.93l-.16-.11c.9.53,3-.36,3.45-.65a13,13,0,0,1,6.49-2c4.42-.44,8.33,1.85,12.57,2.32l1.55.21a130.42,130.42,0,0,0,17.35.26c4.21-.15,8.43-.41,12.63-.78l0,.17Z"/><path class="cls-1" d="M273.63,347.18c25.44-9.19,56.51-11.51,81.56,0l-.07.15c-26.31-8.83-55.19-6.33-81.49-.15Z"/><path class="cls-1" d="M333,210.45a98.28,98.28,0,0,1-14.45.87,17.25,17.25,0,0,1-5-.66,2.73,2.73,0,0,1-1.59-1.73l.5.08c-.73,1.5-2.62,1.81-4.11,1.61a10.52,10.52,0,0,1-2.46-1.18,3.44,3.44,0,0,1-1.71-2.09l.13,0a4.73,4.73,0,0,0-2,2.68l-.16,0a4.81,4.81,0,0,1,2.1-2.79l.06,0a2.61,2.61,0,0,0,1,.88,15.39,15.39,0,0,0,3.43,1.32c-.36,0,.63,0,.81,0a4.91,4.91,0,0,0,2.52-.68V208l.51.81c.22.4,1.15.74,1.42.81,1.41.15,3.07.09,4.64.16,2.38,0,7.2.18,9.59.25,1.6.06,3.21.15,4.81.26v.17Z"/><path class="cls-1" d="M242,276c.95,10.63,1.49,21.28,1.78,31.95.07,3.55.14,7.11.07,10.67h-.16c-1.05-10.62-1.46-21.29-1.74-31.95-.08-3.56-.14-7.11-.11-10.67Z"/><path class="cls-1" d="M255.86,204.15c.72,9.63.92,19.28.82,28.93l-.08,4.82c-.07,1.61-.11,3.22-.21,4.82h-.17c-.51-6.32-.72-13-.81-19.28s0-12.87.28-19.3Z"/><path class="cls-1" d="M256.12,251.35a2.87,2.87,0,0,1,.27,3.37h-.17a2.87,2.87,0,0,1-.26-3.37Z"/><path class="cls-1" d="M239.13,268.59c.44.19.62.33.55.7,0,.2-.3.71-.72.69-.68-.44-.84-1.11,0-1.39Z"/><path class="cls-1" d="M379.81,228.64a2.35,2.35,0,0,1-.4,3.37l-.17,0a2.34,2.34,0,0,1,.4-3.36Z"/><path class="cls-1" d="M382.14,97.68a2.1,2.1,0,0,1-.53,3.1l-.16,0a2.1,2.1,0,0,1,.52-3.1l.17,0Z"/><path class="cls-1" d="M368,193.15a9.83,9.83,0,0,1-3.17,5.28l-.14-.09a9.77,9.77,0,0,1,3.17-5.28l.14.09Z"/><path class="cls-1" d="M368.43,198.56a9.8,9.8,0,0,1-3.17,5.28l-.15-.08a10,10,0,0,1,3.17-5.29l.15.09Z"/><path class="cls-1" d="M368.65,204.72a9.76,9.76,0,0,1-4.42,4.29l-.12-.12a9.83,9.83,0,0,1,4.43-4.29l.11.12Z"/><path class="cls-1" d="M368.65,209.87a9.76,9.76,0,0,1-4.42,4.29l-.12-.12a9.83,9.83,0,0,1,4.43-4.29l.11.12Z"/><path class="cls-1" d="M368.65,216a9.81,9.81,0,0,1-4.42,4.29l-.12-.13a9.83,9.83,0,0,1,4.43-4.29l.11.13Z"/><path class="cls-1" d="M369,221.29a9.81,9.81,0,0,1-4.42,4.29l-.12-.13a9.86,9.86,0,0,1,4.42-4.29l.12.13Z"/><path class="cls-1" d="M369,227a9.81,9.81,0,0,1-4.42,4.29l-.12-.12a9.86,9.86,0,0,1,4.42-4.29l.12.12Z"/><path class="cls-1" d="M369,232.76a9.81,9.81,0,0,1-4.42,4.29l-.12-.13a9.86,9.86,0,0,1,4.42-4.29l.12.13Z"/><path class="cls-1" d="M369,243.6a9.81,9.81,0,0,1-4.42,4.29l-.12-.12a9.76,9.76,0,0,1,4.42-4.29l.12.12Z"/><path class="cls-1" d="M369,249a9.81,9.81,0,0,1-4.42,4.29l-.12-.12a9.76,9.76,0,0,1,4.42-4.29l.12.12Z"/><path class="cls-1" d="M369,254.86a9.81,9.81,0,0,1-4.42,4.29l-.12-.12a9.76,9.76,0,0,1,4.42-4.29l.12.12Z"/><path class="cls-1" d="M368.63,261.15a9.81,9.81,0,0,1-4.42,4.29l-.12-.12a9.83,9.83,0,0,1,4.43-4.29l.11.12Z"/><path class="cls-1" d="M368.63,266.57a9.81,9.81,0,0,1-4.42,4.29l-.12-.12a9.83,9.83,0,0,1,4.43-4.29l.11.12Z"/><path class="cls-1" d="M368.63,272.41a9.81,9.81,0,0,1-4.42,4.29l-.12-.12a9.83,9.83,0,0,1,4.43-4.29l.11.12Z"/><path class="cls-1" d="M369,276.8a9.81,9.81,0,0,1-4.42,4.29l-.12-.12a9.76,9.76,0,0,1,4.42-4.29l.12.12Z"/><path class="cls-1" d="M369,282.22a9.81,9.81,0,0,1-4.42,4.29l-.12-.12a9.76,9.76,0,0,1,4.42-4.29l.12.12Z"/><path class="cls-1" d="M369,288.06a9.81,9.81,0,0,1-4.42,4.29l-.12-.12a9.76,9.76,0,0,1,4.42-4.29l.12.12Z"/><path class="cls-1" d="M369,238.18a9.81,9.81,0,0,1-4.42,4.29l-.12-.13a9.86,9.86,0,0,1,4.42-4.29l.12.13Z"/><text/><path class="cls-1" d="M155.13,172.39c-.38,48-.65,118.64-1,166a14.84,14.84,0,0,1-.57,7c-2.64,7.78-11.34,7.41-18.12,7.8-9.33.4-18.66.64-28,.83-25.65.54-51.35,1-77,.9l-3.49,0H26.1c-3.89.17-8.33-1.82-9.47-5.83-.67-1.6-.46-4.73-.48-6.46.09-25.45.21-72.68.24-98-.08-16.11.14-40.09-.62-56-.32-5.79-.69-11.67-.86-17.47-.33-7,5.17-12.12,12-12.44,2-.2,5-.09,7-.14,13.6.1,28.51-.39,42-.33,21.27-.14,42.87-.5,63.7-1.1,9,.47,16,5.48,15.47,15.25Zm-2.35,0c.85-11.93-11.23-14.44-20.78-13.22-23.34-.34-46.69-.87-70-.8-8.13.22-19.71,1.35-27.93,2-1,.12-4.2.3-5.23.4-4.8.16-9.81,2.4-11.15,7.31-.57,1.74-.5,4.75-.54,6.59-1.22,21.71-.62,48.12-.4,70,.34,25.28,1.19,72.6,1.58,98,.11,2.37-.23,4.61.74,6.37,1.27,2.87,5,3.67,7.91,3.46,2.13,0,8.28.05,10.51,0,32.65.2,65.33,1.05,98,.19,6.52-.32,15.37.16,17.83-7.42a14.34,14.34,0,0,0,.53-6.82c0-13.85-.16-27.7-.24-41.55-.21-26.35-.61-97.3-.76-124.55Z"/><path class="cls-1" d="M159,284.52c-.16,9.14-.79,18.27-1.68,27.37l-.49,4.55c-.2,1.51-.37,3-.6,4.54l-.17,0c.06-6,.43-12.29.89-18.26s1.05-12.15,1.88-18.2l.17,0Z"/><path class="cls-1" d="M161,272a3.2,3.2,0,0,1,0,3.7h-.17a3.2,3.2,0,0,1,0-3.7Z"/><path class="cls-1" d="M150.74,182.8c.62,9.13.68,18.4.44,27.54l-.16,4.59c-.1,1.53-.15,3.06-.28,4.59h-.17c-.63-9.13-.69-18.4-.44-27.54l.16-4.59c.09-1.53.15-3.06.28-4.59Z"/><path class="cls-1" d="M33.35,169.43c31.67-1.92,63.48-3,95.17-.76,7.23-.12,13,3.9,12.49,12.2-.1,15.12-.33,51.49-.43,67-.15,19.54-.15,39.45-.2,59a43.75,43.75,0,0,1-.16,5.36c-1.16,8.22-7.57,12-15.46,11.55-24.18.84-61.39,2.51-85.3,3h.14a6.6,6.6,0,0,1-1.63-.05l-.75-.15c-7-2.1-7.93-10.66-7.88-16.89l-.24-20.3c-.28-33.57-.94-67.85-.16-101.48,0-3.39.11-6.77.1-10.16.14-3.08.47-7.94,4.31-8.4Zm0,.32c-6.18.78-3.65,13.79-3.8,18.21,1.83,33.6,2.23,67.86,2.37,101.45L32,309.7c0,5,.14,12,5.34,14.3a5,5,0,0,0,2,.31c10.65-.21,32-.39,42.68-.47l42.69-.18h2.67c6.69-.25,12-4.58,12.74-11.38a45.25,45.25,0,0,0,.13-5.35c-.1-19.57-.12-39.46-.32-59-.14-15.65-.43-51.76-.56-67,.34-7-4.11-10.56-11-10.37-31.65-1.68-63.39-1.49-95.08-.76Z"/><path class="cls-1" d="M25.24,95.88c-.17,8.49-.36,17.92-.56,26.45-.07,2.94-.05,5.88-.09,8.82C24,134,26.19,136,29,136.05c11.86-.1,26.21-1.32,38.17-2,15.16-.92,30.71-1.24,45.87-1.19q15.42-.06,30.84.18c1.26.22,2.06-1.41,2.33-2.6.52-1.35.31-3.55.36-5l-.07-10.31c-.07-6.89-.25-13.77-.47-20.65-.43-1.74-2.35-2.46-4-2.56-9.83,0-19.67.17-29.5.35-22.79.44-46.73.68-69.54.51-4.63,0-9.27-.08-13.91-.14-2-.17-3.94,1-3.85,3.23Zm-1.35,0c-.14-3.1,2.52-4.92,5.2-4.76C33.73,91.05,38.37,91,43,91c8-.12,19.69,0,27.82,0,23,.1,46.52.8,69.53.92,2.12-.16,5,.23,5.69,2.6.26,6.88.57,13.76,1,20.64l.65,10.32c.33,3.21.51,9.64-4.24,9.35-24.19,1.33-51.11,2.47-76.2,1.95-10.52-.29-24-.66-34.44-.63-3.72.18-8.92.25-8.27-5,0-2.91,0-5.88-.09-8.81-.12-8.55-.45-18-.56-26.45Z"/><path class="cls-1" d="M46.76,97.58C56.18,97,65.59,97,75,97.28q7,.16,14.11.52c4.7.24,9.4.55,14.1,1v.17c-9.42.43-18.84.45-28.26.3-4.7,0-9.41-.22-14.11-.42s-9.4-.54-14.1-1.07v-.17Z"/><path class="cls-1" d="M114.34,98.18c1.13-.42,2.69-.57,3.37.59l0,.17c-1,.85-2.45.18-3.37-.6l0-.16Z"/><path class="cls-1" d="M110.84,136.12a45.49,45.49,0,0,1,.88,14.85,27.66,27.66,0,0,1-.88,4.95h-.16a43.13,43.13,0,0,1-.85-14.85,29.47,29.47,0,0,1,.85-4.95Z"/><path class="cls-1" d="M59.53,136.11a37.94,37.94,0,0,1,1.6,14.82,26.11,26.11,0,0,1-.81,5h-.17a34.83,34.83,0,0,1-1.57-9.85,40.2,40.2,0,0,1,.78-9.93l.17,0Z"/><path class="cls-1" d="M150.74,107.17a52.58,52.58,0,0,1,.58,12.34,27.66,27.66,0,0,1-.58,4.11h-.17a44.69,44.69,0,0,1-.53-12.33,36.57,36.57,0,0,1,.53-4.12Z"/><path class="cls-1" d="M118.83,197c-10.52,1.07-21.11,2.06-31.69,1.53-4.19-.08-8.16-2.07-12.32-1.75a11.64,11.64,0,0,0-5.53,1.5c-1.63.85-3.42,1.49-5.27.64a5.12,5.12,0,0,0-5.46-.35l-.77.4-.1,0a5.75,5.75,0,0,1-4.18-.16,6,6,0,0,0-2.67-1.31,4.3,4.3,0,0,0-2.87.49l-.09-.14a4.39,4.39,0,0,1,3-.88,6.55,6.55,0,0,1,3,1.09c.87.47,2.89.05,3.3-.11a11.53,11.53,0,0,1,1.73-.93,6.62,6.62,0,0,1,4-.4,5.14,5.14,0,0,1,2,.93l-.16-.11c.9.53,3-.36,3.44-.65a13,13,0,0,1,6.5-2c4.42-.44,8.33,1.85,12.57,2.32l1.55.21a130.42,130.42,0,0,0,17.35.26c4.21-.15,8.43-.41,12.63-.78l0,.17Z"/><path class="cls-1" d="M44.55,347.18c25.45-9.19,56.52-11.51,81.56,0l-.06.15c-26.31-8.83-55.19-6.33-81.5-.15Z"/><path class="cls-1" d="M103.94,210.45a98.36,98.36,0,0,1-14.45.87,17.25,17.25,0,0,1-5-.66c-.71-.41-1.42-.84-1.59-1.73l.5.08c-.73,1.5-2.62,1.81-4.12,1.61a10.64,10.64,0,0,1-2.45-1.18,3.44,3.44,0,0,1-1.71-2.09l.12,0a4.76,4.76,0,0,0-2,2.68l-.17,0a4.87,4.87,0,0,1,2.11-2.79l.06,0a2.54,2.54,0,0,0,1,.88,15,15,0,0,0,3.43,1.32c-.36,0,.63,0,.81,0a4.91,4.91,0,0,0,2.52-.68V208l.5.81a3,3,0,0,0,1.42.81c1.42.15,3.08.09,4.65.16,2.38,0,7.2.18,9.59.25,1.6.06,3.2.15,4.81.26v.17Z"/><path class="cls-1" d="M13,276c.95,10.63,1.48,21.28,1.78,31.95.07,3.55.13,7.11.07,10.67h-.17c-1-10.62-1.46-21.29-1.73-31.95-.08-3.56-.14-7.11-.12-10.67Z"/><path class="cls-1" d="M26.79,204.15c.72,9.63.92,19.28.82,28.93l-.09,4.82c-.07,1.61-.1,3.22-.2,4.82h-.17c-.51-6.32-.72-13-.81-19.28s-.05-12.87.28-19.3Z"/><path class="cls-1" d="M27.05,251.35a2.87,2.87,0,0,1,.27,3.37h-.17a2.88,2.88,0,0,1-.27-3.37Z"/><path class="cls-1" d="M10.06,268.59c.44.19.62.33.55.7,0,.2-.3.71-.72.69-.68-.44-.85-1.11,0-1.39Z"/><path class="cls-1" d="M150.74,228.64a2.35,2.35,0,0,1-.4,3.37l-.17,0a2.34,2.34,0,0,1,.4-3.36Z"/><path class="cls-1" d="M153.07,97.68a2.1,2.1,0,0,1-.53,3.1l-.17,0a2.11,2.11,0,0,1,.53-3.1l.17,0Z"/><path class="cls-1" d="M139,193.15a9.83,9.83,0,0,1-3.17,5.28l-.15-.09a9.89,9.89,0,0,1,3.17-5.28l.15.09Z"/><path class="cls-1" d="M139.36,198.56a9.8,9.8,0,0,1-3.17,5.28l-.15-.08a9.84,9.84,0,0,1,3.17-5.29l.15.09Z"/><path class="cls-1" d="M139.58,204.72a9.76,9.76,0,0,1-4.42,4.29l-.12-.12a9.86,9.86,0,0,1,4.42-4.29l.12.12Z"/><path class="cls-1" d="M139.58,209.87a9.76,9.76,0,0,1-4.42,4.29L135,214a9.86,9.86,0,0,1,4.42-4.29l.12.12Z"/><path class="cls-1" d="M139.58,216a9.81,9.81,0,0,1-4.42,4.29l-.12-.13a9.86,9.86,0,0,1,4.42-4.29l.12.13Z"/><path class="cls-1" d="M140,221.29a9.86,9.86,0,0,1-4.42,4.29l-.12-.13a9.86,9.86,0,0,1,4.42-4.29l.12.13Z"/><path class="cls-1" d="M140,227a9.86,9.86,0,0,1-4.42,4.29l-.12-.12a9.86,9.86,0,0,1,4.42-4.29l.12.12Z"/><path class="cls-1" d="M140,232.76a9.86,9.86,0,0,1-4.42,4.29l-.12-.13a9.86,9.86,0,0,1,4.42-4.29l.12.13Z"/><path class="cls-1" d="M140,243.6a9.86,9.86,0,0,1-4.42,4.29l-.12-.12a9.76,9.76,0,0,1,4.42-4.29l.12.12Z"/><path class="cls-1" d="M140,249a9.86,9.86,0,0,1-4.42,4.29l-.12-.12a9.76,9.76,0,0,1,4.42-4.29l.12.12Z"/><path class="cls-1" d="M140,254.86a9.86,9.86,0,0,1-4.42,4.29l-.12-.12a9.76,9.76,0,0,1,4.42-4.29l.12.12Z"/><path class="cls-1" d="M139.56,261.15a9.81,9.81,0,0,1-4.42,4.29l-.12-.12a9.83,9.83,0,0,1,4.43-4.29l.11.12Z"/><path class="cls-1" d="M139.56,266.57a9.81,9.81,0,0,1-4.42,4.29l-.12-.12a9.83,9.83,0,0,1,4.43-4.29l.11.12Z"/><path class="cls-1" d="M139.56,272.41a9.81,9.81,0,0,1-4.42,4.29l-.12-.12a9.83,9.83,0,0,1,4.43-4.29l.11.12Z"/><path class="cls-1" d="M140,276.8a9.86,9.86,0,0,1-4.42,4.29l-.12-.12a9.76,9.76,0,0,1,4.42-4.29l.12.12Z"/><path class="cls-1" d="M140,282.22a9.86,9.86,0,0,1-4.42,4.29l-.12-.12a9.76,9.76,0,0,1,4.42-4.29l.12.12Z"/><path class="cls-1" d="M140,288.06a9.86,9.86,0,0,1-4.42,4.29l-.12-.12a9.76,9.76,0,0,1,4.42-4.29l.12.12Z"/><path class="cls-1" d="M140,238.18a9.86,9.86,0,0,1-4.42,4.29l-.12-.13a9.86,9.86,0,0,1,4.42-4.29l.12.13Z"/><text/><path class="cls-1" d="M286.83,140.8c-.45,56.37-.75,139.31-1.17,194.93a17.36,17.36,0,0,1-.67,8.18c-2.46,7.44-10.28,8.77-17.16,8.92-12.32.7-24.66.93-37,1.22-30.11.63-60.29,1.12-90.42,1.05-1.36,0-4.86,0-6.22-.06-4.22-.13-8.77-2.53-10-6.83-.8-1.87-.53-5.56-.56-7.59.12-43.93.39-104.18.16-147.9.07-9.59-.1-23.4-.62-32.87-.3-5.47-.63-10.93-.86-16.4l-.14-4.11a14.12,14.12,0,0,1,2.45-8.62c3-4.39,8.57-6.1,13.71-6.11,18.08,0,37.51-.42,55.52-.42,25-.17,50.34-.59,74.8-1.3,10.67.58,18.79,6.41,18.16,17.91Zm-2.75-.07c.94-14-13.05-16.9-24.29-15.53-27.44-.35-54.9-1-82.35-.93-9.55.27-23.15,1.6-32.8,2.29-4.95.55-11,.14-15.14,3.23a11.68,11.68,0,0,0-4.65,9.45l-.07,4.11c-.34,11-1,22-1,32.92l.14,16.44c.32,43.68,1.53,104.11,2.2,148,.12,2.79-.27,5.42.87,7.48,1.49,3.38,5.82,4.31,9.29,4.07,2.5-.05,9.71.06,12.33,0,27.39.23,54.79.64,82.18.64,12.33-.07,24.66,0,37-.62,6.65-.11,14.52-1.23,16.83-8.52a16.78,16.78,0,0,0,.62-8c-.11-55.34-1-138.9-1.16-195Z"/><path class="cls-1" d="M291.37,272.46c-.1,7.16-.53,14.31-1,21.45s-1.2,14.26-2.22,21.36l-.2,0c.14-10.75.94-21.45,2-32.14.36-3.56.75-7.12,1.25-10.67l.2,0Z"/><path class="cls-1" d="M293.77,257.71a3.76,3.76,0,0,1,0,4.35h-.19a3.77,3.77,0,0,1,0-4.35Z"/><path class="cls-1" d="M281.68,153c.53,7.18.65,14.37.67,21.56s-.14,14.37-.67,21.56h-.2c-.54-7.19-.66-14.38-.68-21.56s.14-14.38.68-21.56Z"/><path class="cls-1" d="M143.83,137.32c37.2-2.25,74.55-3.56,111.76-.9,7.51-.17,14.63,3.86,14.66,12.75-.22,40.78-.65,90.05-.69,130.69,0,4.05,0,14.95,0,18.9v3.15c.16,5.21-1.92,10.71-6.29,13.76a16.28,16.28,0,0,1-3.48,1.83c-.41.1-1.84.53-2.28.65-1,.16-2.09.31-3.13.43l-3.15,0c-31.8,1.2-68.27,2.75-100.17,3.57h.16a6,6,0,0,1-1,0c-.31,0-.6-.06-.9-.09l-.88-.18c-8.26-2.47-9.31-12.52-9.25-19.83l-.28-23.84c-.33-39.42-1.1-79.67-.19-119.16,0-4,.12-8,.12-11.93.16-3.62.55-9.31,5.05-9.86Zm0,.38c-7.21.8-4.31,16.28-4.46,21.38l1.1,23.81c1.3,31.27,1.48,63.94,1.68,95.31L142.3,302c0,5.78.2,14.14,6.27,16.8a5.71,5.71,0,0,0,2.37.36c22.33-.38,52.85-.59,75.17-.64,9.4,0,18.82-.1,28.21-.13,1-.1,2.08-.24,3.11-.39l1.51-.41.76-.21a16.4,16.4,0,0,0,3.49-1.78c4.42-3,6.45-8.52,6.25-13.71v-3.15c0-3.9-.05-14.83-.08-18.89-.09-40.6-.66-89.94-1-130.68-.14-7.4-5.85-10.86-12.88-10.6-9.29-.59-18.6-.9-27.91-1.13-27.91-.41-55.83-.6-83.74.24Z"/><path class="cls-1" d="M134.32,51c-.2,10-.43,21-.66,31.06-.08,3.45-.06,6.9-.1,10.35-.67,3.38,1.87,5.72,5.15,5.76,13.81-.12,30.92-1.56,44.83-2.36,17.8-1.08,36.06-1.46,53.86-1.4q18.1-.08,36.21.21v0a1.18,1.18,0,0,0,.36,0,1.94,1.94,0,0,0,1.29-.74c1.71-2.09,1.53-5.6,1.52-8.19l-.09-12.11c-.07-8.08-.28-16.16-.54-24.24a3.87,3.87,0,0,0-2.73-2.63,10,10,0,0,0-3.93-.36c-10.89,0-21.77.19-32.66.39-26.76.52-54.87.8-81.65.6-5.44,0-10.89-.09-16.33-.17-2.37-.18-4.61,1.13-4.52,3.8Zm-1.58,0c-.15-3.68,2.91-5.76,6.1-5.6,15.7-.26,33.19-.22,49-.16,27.06.11,54.63.94,81.65,1.07,2.48-.18,5.88.28,6.68,3.06.31,8.08.68,16.15,1.17,24.23l.77,12.12c.16,3.11.61,6.66-1.36,9.39a3.79,3.79,0,0,1-3.63,1.59c-10.55.7-24.06,1.18-35.61,1.62-23.47,1.08-48.29,1-71.83.21-7-.2-15.54-.29-22.47-.28-4.41.19-10.42.33-9.7-5.84,0-3.45,0-6.9-.11-10.35-.14-10-.53-21.08-.65-31.06Z"/><path class="cls-1" d="M159.59,53c13.81-.89,27.64-.58,41.46-.09,8.29.3,16.57.75,24.85,1.49v.2c-11.06.51-22.11.53-33.17.35-5.53-.06-11.06-.25-16.58-.49s-11-.63-16.56-1.26V53Z"/><path class="cls-1" d="M238.94,53.65a4.39,4.39,0,0,1,2.1-.32,2,2,0,0,1,1.85,1l0,.2a2,2,0,0,1-2.1.32,4.47,4.47,0,0,1-1.86-1l0-.2Z"/><path class="cls-1" d="M234.83,98.21a53.48,53.48,0,0,1,1,17.43,32.67,32.67,0,0,1-1,5.81h-.19c-1.51-5.71-1.5-11.59-1-17.43a37,37,0,0,1,1-5.81Z"/><path class="cls-1" d="M174.57,98.2c2,5.6,2.21,11.54,1.89,17.4a31.42,31.42,0,0,1-1,5.85h-.2a40.78,40.78,0,0,1-1.85-11.57,47,47,0,0,1,.92-11.66l.19,0Z"/><path class="cls-1" d="M281.68,64.22a61.62,61.62,0,0,1,.68,14.48,33.41,33.41,0,0,1-.68,4.83h-.2a52.05,52.05,0,0,1-.62-14.48,42,42,0,0,1,.62-4.83Z"/><path class="cls-1" d="M244.21,169.71c-12.35,1.27-24.78,2.43-37.22,1.8-4.86-.08-9.58-2.43-14.46-2a15.32,15.32,0,0,0-5.06,1c-1.51.7-2.71,1.56-4.35,1.82a4.67,4.67,0,0,1-3.45-.47c-1.7-1.37-4.31-1.22-6.23-.28l-.91.47-.11.05a6.67,6.67,0,0,1-4.91-.18,7.14,7.14,0,0,0-3.13-1.54,5,5,0,0,0-3.37.58l-.11-.17a5.21,5.21,0,0,1,3.56-1A7.77,7.77,0,0,1,168,171a5.3,5.3,0,0,0,3,.09,6.78,6.78,0,0,0,1-.28l-.13.06c2.64-1.82,6.34-2.57,9.1-.47l-.19-.13a3.12,3.12,0,0,0,2,.06,8.93,8.93,0,0,0,2.17-.89l-.1.06c4.56-2.94,10.34-2.91,15.32-1.37a47.59,47.59,0,0,0,14.41,2.37,260.28,260.28,0,0,0,29.68-1l0,.19Z"/><path class="cls-1" d="M157,346c29.84-10.78,66.4-13.5,95.77,0l-.07.19c-30.89-10.37-64.82-7.45-95.7-.19Z"/><path class="cls-1" d="M226.72,185.48a114.52,114.52,0,0,1-17,1,20.9,20.9,0,0,1-5.83-.77,3.2,3.2,0,0,1-1.88-2l.59.1c-.86,1.76-3.08,2.12-4.83,1.88a12.49,12.49,0,0,1-2.88-1.37,4.05,4.05,0,0,1-2-2.46l.15.05a5.46,5.46,0,0,0-2.39,3.14l-.2,0a5.7,5.7,0,0,1,2.48-3.28l.07,0a3.1,3.1,0,0,0,1.12,1,21.39,21.39,0,0,0,3.89,1.52,6.65,6.65,0,0,0,4.41-1,3,3,0,0,0,2,1.28c1.39.13,3.64.12,5.4.18,2.8.06,8.46.21,11.26.3,1.88.06,3.77.17,5.66.29v.2Z"/><path class="cls-1" d="M119.9,262.47C121,275,121.64,287.46,122,300l.1,6.27c0,2.08,0,4.17,0,6.26h-.2c-.81-8.18-1.31-16.79-1.63-25s-.59-16.69-.54-25Z"/><path class="cls-1" d="M136.13,178.09c.84,11.25,1.09,22.69,1,34l-.1,5.67c-.08,1.89-.12,3.77-.25,5.66h-.19c-.88-11.25-1.08-22.69-1-34l.11-5.66c.07-1.89.11-3.78.23-5.66Z"/><path class="cls-1" d="M136.44,233.51a3.36,3.36,0,0,1,.31,4h-.19a3.35,3.35,0,0,1-.31-3.95l.19,0Z"/><path class="cls-1" d="M116.49,253.76c.51.22.73.38.65.81,0,.22-.37.85-.85.82-.54-.36-.79-.76-.61-1.22a1,1,0,0,1,.81-.41Z"/><path class="cls-1" d="M281.67,206.85a2.75,2.75,0,0,1-.46,4l-.2,0a2.75,2.75,0,0,1,.47-3.95l.19,0Z"/><path class="cls-1" d="M284.41,53.07a2.46,2.46,0,0,1-.62,3.64l-.19,0a2.46,2.46,0,0,1,.62-3.64l.19,0Z"/><path class="cls-1" d="M267.86,165.17a11.55,11.55,0,0,1-3.73,6.2l-.17-.1a11.49,11.49,0,0,1,3.73-6.2l.17.1Z"/><path class="cls-1" d="M268.31,171.53a11.47,11.47,0,0,1-3.72,6.2l-.17-.1a11.59,11.59,0,0,1,3.72-6.21l.17.11Z"/><path class="cls-1" d="M268.58,178.76a11.52,11.52,0,0,1-5.2,5l-.14-.14a11.58,11.58,0,0,1,5.2-5l.14.14Z"/><path class="cls-1" d="M268.58,184.81a11.57,11.57,0,0,1-5.2,5l-.14-.14a11.53,11.53,0,0,1,5.2-5l.14.14Z"/><path class="cls-1" d="M268.58,192a11.52,11.52,0,0,1-5.2,5l-.14-.14a11.58,11.58,0,0,1,5.2-5l.14.14Z"/><path class="cls-1" d="M269,198.21a11.6,11.6,0,0,1-5.19,5l-.14-.14a11.51,11.51,0,0,1,5.19-5l.14.14Z"/><path class="cls-1" d="M269,204.94a11.55,11.55,0,0,1-5.19,5l-.14-.14a11.61,11.61,0,0,1,5.19-5l.14.14Z"/><path class="cls-1" d="M269,211.68a11.6,11.6,0,0,1-5.19,5l-.14-.15a11.54,11.54,0,0,1,5.19-5l.14.14Z"/><path class="cls-1" d="M269,224.41a11.53,11.53,0,0,1-5.19,5l-.14-.14a11.54,11.54,0,0,1,5.19-5l.14.14Z"/><path class="cls-1" d="M269,230.77a11.55,11.55,0,0,1-5.19,5l-.14-.14a11.51,11.51,0,0,1,5.19-5l.14.14Z"/><path class="cls-1" d="M269,237.63a11.6,11.6,0,0,1-5.19,5l-.14-.15a11.54,11.54,0,0,1,5.19-5l.14.14Z"/><path class="cls-1" d="M268.55,245a11.5,11.5,0,0,1-5.19,5l-.14-.14a11.53,11.53,0,0,1,5.2-5l.13.14Z"/><path class="cls-1" d="M268.55,251.39a11.53,11.53,0,0,1-5.19,5l-.14-.14a11.63,11.63,0,0,1,5.2-5l.13.15Z"/><path class="cls-1" d="M268.55,258.24a11.5,11.5,0,0,1-5.19,5l-.14-.14a11.58,11.58,0,0,1,5.2-5l.13.14Z"/><path class="cls-1" d="M269,263.39a11.55,11.55,0,0,1-5.19,5l-.14-.14a11.51,11.51,0,0,1,5.19-5l.14.14Z"/><path class="cls-1" d="M269,269.76a11.58,11.58,0,0,1-5.19,5l-.14-.14a11.61,11.61,0,0,1,5.19-5l.14.15Z"/><path class="cls-1" d="M269,276.61a11.55,11.55,0,0,1-5.19,5l-.14-.14a11.56,11.56,0,0,1,5.19-5l.14.14Z"/><path class="cls-1" d="M269,218a11.55,11.55,0,0,1-5.19,5l-.14-.14a11.56,11.56,0,0,1,5.19-5l.14.14Z"/><text/></g></svg>