<svg xmlns="http://www.w3.org/2000/svg" viewBox="0 0 400 400"><defs><style>.cls-1{fill:#231f20;}.cls-2{fill:#080707;stroke-width:0.24px;}.cls-2,.cls-3{stroke:#231f20;stroke-miterlimit:10;}.cls-3{font-size:55.21px;fill:#fff;stroke-width:0.24px;font-family:MyriadPro-Regular, Myriad Pro;}</style></defs><g id="Layer_5" data-name="Layer 5"><path class="cls-1" d="M298.78,128.48l-.65,117.7L297.71,305l-.2,29.43q-.12,14.71-.13,29.43v0a20.85,20.85,0,0,1-.79,9.92,14.35,14.35,0,0,1-6.19,7.7,21.17,21.17,0,0,1-9.58,2.69c-1.65.22-3.31.29-5,.39s-3.31.21-5,.28c-13.23.57-26.47.91-39.7,1.18q-39.72.87-79.43,1.23c-6.61,0-13.23.11-19.85.08l-9.93,0-5,0h-1.86l-.7,0a16.47,16.47,0,0,1-2.72-.36,13.94,13.94,0,0,1-5.15-2.17,10.43,10.43,0,0,1-3.69-4.39l-.31-.65-.21-.67-.39-1.36-.19-1.37a7,7,0,0,1-.11-1.35l0-5.09,0-19.84.24-79.38.06-39.7-.13-39.7-.1-19.86q-.12-9.92-.65-19.83c-.36-6.61-.77-13.21-1-19.81l-.17-5a17,17,0,0,1,.64-5.43,16.16,16.16,0,0,1,2.32-5l.84-1.11c.31-.35.65-.67,1-1a15.54,15.54,0,0,1,2.12-1.77c.75-.54,1.58-.92,2.37-1.38s1.67-.68,2.51-1,1.73-.41,2.59-.62,1.75-.23,2.62-.35c.43,0,.88-.11,1.3-.12l1.24,0,2.49,0,5,0,19.89-.05c6.62,0,13.24-.22,19.85-.36,6.62.07,13.24,0,19.85,0,26.47-.15,52.94-.76,79.42-1.09h-.19a50.44,50.44,0,0,1,11.11-.48,32,32,0,0,1,11,2.54,20.88,20.88,0,0,1,4.94,3.12,16.21,16.21,0,0,1,3.7,4.65,18.86,18.86,0,0,1,1.2,2.73,20.6,20.6,0,0,1,.71,2.86A26.42,26.42,0,0,1,298.78,128.48Zm-3.32-.07a23.53,23.53,0,0,0-.3-5.07,19.51,19.51,0,0,0-.58-2.4,16.34,16.34,0,0,0-1-2.23,13.66,13.66,0,0,0-2.93-3.83,17,17,0,0,0-4.11-2.74,29.45,29.45,0,0,0-9.94-2.61,47.85,47.85,0,0,0-10.5.11l-.14,0h-.05c-26.47-.34-52.94-1-79.41-1.1-6.62,0-13.24-.1-19.86,0-3.31,0-6.61.29-9.91.5s-6.61.43-9.91.69l-19.79,1.6-4.94.38-2.47.18-1.24.08c-.41,0-.77.11-1.16.17a18.49,18.49,0,0,0-8.47,3.07,13.39,13.39,0,0,0-5,7,16.08,16.08,0,0,0-.66,4.37l-.09,5c-.19,6.63-.51,13.26-.78,19.89s-.39,13.25-.38,19.87l.18,19.85.41,39.71.6,39.7L104.44,350l.3,19.87.07,4.84a5,5,0,0,0,.11,1.11l.16,1.09.32,1,.16.51.24.46c1.14,2.56,3.74,4.08,6.62,4.64a14.84,14.84,0,0,0,2.2.26,4.91,4.91,0,0,0,.54,0H122l9.92.05,19.85.17c26.46.26,52.93.62,79.4.6,13.23,0,26.47,0,39.69-.52,1.65-.05,3.3-.15,4.95-.23s3.3-.14,4.94-.33a20.86,20.86,0,0,0,9.38-2.53,13.48,13.48,0,0,0,6-7.42,20.46,20.46,0,0,0,.74-9.67v-.05c0-9.81-.06-19.62-.13-29.43L296.53,305l-.41-58.87Z"/><path class="cls-1" d="M304.27,287.48c-.12,8.66-.64,17.29-1.26,25.91s-1.44,17.22-2.68,25.79l-.24,0c.08-8.66.61-17.28,1.27-25.9s1.47-17.22,2.67-25.8Z"/><path class="cls-1" d="M307.17,269.68a3.87,3.87,0,0,1,.61,1.31,4.58,4.58,0,0,1,.2,1.31,4.5,4.5,0,0,1-.14,1.31,3.34,3.34,0,0,1-.67,1.31h-.24a3.31,3.31,0,0,1-.66-1.31,4.19,4.19,0,0,1-.15-1.31,5.4,5.4,0,0,1,.2-1.31,3.87,3.87,0,0,1,.61-1.31Z"/><path class="cls-1" d="M292.56,143.24c.64,8.68.79,17.36.82,26s-.18,17.35-.82,26h-.24c-.64-8.68-.79-17.35-.82-26s.18-17.36.82-26Z"/><path class="cls-1" d="M126.09,124.28c11.23-.71,22.46-1.27,33.7-1.74s22.49-.83,33.75-1.09,22.51,0,33.77.18,22.51.79,33.75,1.57h-.18a22.66,22.66,0,0,1,8,1.19,15,15,0,0,1,6.77,4.59,14.36,14.36,0,0,1,3,7.58c.09.67.1,1.35.13,2v1.91l0,3.8-.19,30.43-.39,60.86-.3,60.86v26.62a23,23,0,0,1-.21,3.8,21.19,21.19,0,0,1-2.35,7.19,16.65,16.65,0,0,1-5,5.63,19.27,19.27,0,0,1-7,3,30.68,30.68,0,0,1-7.59.58h0l-60.48,2.37L165,346.66l-30.25.89.2,0a6.45,6.45,0,0,1-1.22,0c-.38,0-.73-.07-1.09-.1l-1.06-.22-1-.32a11.94,11.94,0,0,1-3.64-2.16,15.93,15.93,0,0,1-4.44-6.68,27.61,27.61,0,0,1-1.13-3.7c-.22-1.24-.47-2.49-.61-3.74s-.26-2.54-.29-3.75l0-3.6-.34-28.78c-.25-19.19-.37-38.39-.5-57.58s-.53-38.34-.19-57.53l.46-28.8c0-4.8.15-9.6.15-14.41a25.74,25.74,0,0,1,1.05-7.13,9,9,0,0,1,1.75-3.2,4.75,4.75,0,0,1,3.3-1.58Zm0,.46a4.27,4.27,0,0,0-3,1.39,8.54,8.54,0,0,0-1.74,3,23.93,23.93,0,0,0-1.17,7c.1,4.78.38,9.58.56,14.36l1.33,28.76c.92,19.17,1.09,38.37,1.54,57.56.18,9.6.19,19.18.3,28.77l.2,28.77.15,28.77v3.6c0,1.19.17,2.28.24,3.42s.35,2.25.53,3.36a23.84,23.84,0,0,0,1,3.18,12.3,12.3,0,0,0,3.35,5.22,8.12,8.12,0,0,0,2.5,1.51l.68.22.71.15c.23,0,.47.07.7.07s.5,0,.57,0l.2,0,30.26-.42,30.26-.24,60.52-.26h0a30,30,0,0,0,7.56-.45,18.4,18.4,0,0,0,7-2.89,16.32,16.32,0,0,0,5-5.6,21.28,21.28,0,0,0,2.33-7.2,22.82,22.82,0,0,0,.19-3.79V311.65l-.05-15.21-.42-60.85-.51-60.85-.25-30.43,0-3.8,0-1.9a17.36,17.36,0,0,0-.15-1.77,12,12,0,0,0-2.58-6.34c-2.92-3.54-8.11-4.85-12.72-4.68h-.18c-11.19-.72-22.41-1.1-33.64-1.37s-22.46-.23-33.69-.35-22.48-.11-33.72,0S137.35,124.39,126.11,124.74Z"/><path class="cls-1" d="M114.6,20c-.15,8.33-.3,16.67-.53,25l-.26,12.51c-.1,4.16-.08,8.33-.13,12.5h0a5.89,5.89,0,0,0,1.3,5A7.53,7.53,0,0,0,119.91,77c3.6.06,7.22-.16,10.83-.29l5.41-.23,5.42-.3c3.61-.18,7.22-.41,10.82-.64l21.66-1.39,10.83-.58,10.83-.46c7.23-.22,14.46-.47,21.69-.54s14.46-.07,21.69-.11q21.71-.07,43.4.25l.32,0,.16,0a1.22,1.22,0,0,0,.27,0,1.59,1.59,0,0,0,.55-.14,2.45,2.45,0,0,0,1-.75A6.89,6.89,0,0,0,286.13,69a19.22,19.22,0,0,0,.52-3.41V61.92l-.11-14.63c0-4.88-.15-9.76-.25-14.64S286,22.9,285.87,18h0a4,4,0,0,0-1.22-2,5.69,5.69,0,0,0-2.08-1.16,9.8,9.8,0,0,0-2.34-.46c-.4,0-.8,0-1.2,0l-1.2.06h0c-13.15,0-26.29.23-39.44.47s-26.3.45-39.44.6l-19.72.16-19.72,0c-6.58,0-13.15,0-19.73-.07s-13.14-.11-19.72-.21H120a7.33,7.33,0,0,0-2.06.19,4.69,4.69,0,0,0-1.8.85A3.37,3.37,0,0,0,115,18,6,6,0,0,0,114.6,20Zm-1.91,0c0-.46,0-.92.1-1.37a6.68,6.68,0,0,1,.36-1.38,5.42,5.42,0,0,1,1.68-2.39,6.84,6.84,0,0,1,2.55-1.29,9,9,0,0,1,2.77-.33h-.09c6.58-.09,13.15-.18,19.73-.2s13.14-.09,19.72-.06l19.72,0,19.72.19q19.73.22,39.44.62c13.15.25,26.29.46,39.44.5h0l1.2,0c.4,0,.8,0,1.2,0a10.32,10.32,0,0,1,2.35.48A5.72,5.72,0,0,1,284.65,16a4.08,4.08,0,0,1,1.25,2h0c.21,4.87.36,9.75.62,14.63s.49,9.75.8,14.63l.92,14.63.24,3.67a20.86,20.86,0,0,1-.33,3.85,9,9,0,0,1-1.54,3.83,4.62,4.62,0,0,1-4.39,1.92l.32,0c-14.44.8-28.89,1.41-43.33,1.92-7.23.24-14.45.56-21.67.72s-14.45.24-21.68.3l-10.84,0-10.85-.17-21.71-.55c-3.62-.09-7.24-.18-10.86-.23l-5.42-.09h-5.43l-5.42,0c-1.81,0-3.62.1-5.43,0a7.63,7.63,0,0,1-4.93-2A6,6,0,0,1,113.61,70h0c0-4.17,0-8.34-.12-12.5L113.22,45C113,36.66,112.84,28.32,112.69,20Z"/><path class="cls-1" d="M145.12,22.39c6.68-.47,13.36-.59,20-.67s13.35,0,20,.25c3.34.08,6.68.17,10,.31s6.67.27,10,.43c6.67.35,13.33.75,20,1.37v.24c-6.68.34-13.36.46-20,.52-3.34,0-6.67,0-10,0s-6.68-.05-10-.11c-6.68-.07-13.35-.31-20-.6s-13.34-.76-20-1.52Z"/><path class="cls-1" d="M241,23.24a4.73,4.73,0,0,1,1.29-.36,6.47,6.47,0,0,1,1.24,0,3.76,3.76,0,0,1,1.19.24,2.29,2.29,0,0,1,1.06,1l0,.24a2.24,2.24,0,0,1-1.33.57,3.8,3.8,0,0,1-1.2-.18,6.57,6.57,0,0,1-1.15-.46,4.73,4.73,0,0,1-1.09-.77Z"/><path class="cls-1" d="M236,77.05a44.08,44.08,0,0,1,1.21,7c.23,2.34.34,4.68.35,7a65.64,65.64,0,0,1-.31,7,40.11,40.11,0,0,1-1.25,7h-.24a40.11,40.11,0,0,1-1.25-7,68.37,68.37,0,0,1-.31-7c0-2.34.12-4.68.35-7a45.24,45.24,0,0,1,1.21-7Z"/><path class="cls-1" d="M163.22,77A33,33,0,0,1,165,84a66.38,66.38,0,0,1,.66,7,61.13,61.13,0,0,1-.12,7,37.21,37.21,0,0,1-1.15,7.07h-.24a37.8,37.8,0,0,1-1.62-7,65.9,65.9,0,0,1-.61-7A56.93,56.93,0,0,1,163,77.07Z"/><path class="cls-1" d="M292.56,36a50.53,50.53,0,0,1,.75,5.83c.15,1.94.22,3.89.25,5.83s0,3.89-.17,5.83a38.79,38.79,0,0,1-.83,5.83h-.24a38.77,38.77,0,0,1-.82-5.83c-.16-1.94-.2-3.88-.18-5.83s.1-3.89.26-5.83a48.4,48.4,0,0,1,.74-5.83Z"/><path class="cls-1" d="M247.31,163.4q-8.94,1-17.9,1.64c-6,.42-12,.72-18,.74-1.51,0-3,0-4.52,0l-2.27-.06-2.27-.13c-1.51,0-3-.3-4.57-.46l-2.31-.53c-.79-.18-1.42-.36-2.14-.55a29.28,29.28,0,0,0-8.45-.93,18,18,0,0,0-4.14.6,16.77,16.77,0,0,0-2,.64,12.48,12.48,0,0,0-1.72.88l-.12.08a11.43,11.43,0,0,1-1.66.74,10,10,0,0,1-1.75.49,6,6,0,0,1-3.94-.4l-.13-.07-.1-.09a4.91,4.91,0,0,0-.84-.54,5.69,5.69,0,0,0-1-.4,6.94,6.94,0,0,0-2.23-.28,8.86,8.86,0,0,0-2.3.46c-.38.12-.75.3-1.13.44l-1.09.56-.14.07h0a10.67,10.67,0,0,1-2.95.43,6.22,6.22,0,0,1-3-.67l-.08,0,0,0a8.48,8.48,0,0,0-1.7-1.12,7.19,7.19,0,0,0-2-.66,5.76,5.76,0,0,0-2.07,0,6.3,6.3,0,0,0-2,.71l-.14-.2a7,7,0,0,1,2-1,5.84,5.84,0,0,1,2.28-.22,8.07,8.07,0,0,1,2.26.52,9.36,9.36,0,0,1,2.07,1.09l-.12-.08a5.44,5.44,0,0,0,2.39.31,10.49,10.49,0,0,0,1.25-.2,7.91,7.91,0,0,0,1.19-.35l-.16.08,1.18-.73c.42-.2.83-.43,1.27-.6a11.26,11.26,0,0,1,2.78-.72,9.16,9.16,0,0,1,2.95.18,8,8,0,0,1,1.43.48,6.35,6.35,0,0,1,1.39.84l-.23-.16a3.75,3.75,0,0,0,2.39.07,10.18,10.18,0,0,0,1.35-.45,10,10,0,0,0,1.27-.63l-.12.08a13.15,13.15,0,0,1,2.23-1.23,18.65,18.65,0,0,1,2.27-.82,21.69,21.69,0,0,1,4.71-.8,25.76,25.76,0,0,1,9.3,1.2c.72.23,1.51.51,2.17.7l2,.6c1.44.26,2.84.63,4.32.79l2.2.3,2.22.18c1.47.15,3,.21,4.45.29,6,.21,11.94.11,17.92-.11s11.95-.58,17.91-1.11Z"/><path class="cls-1" d="M142,376.34a161.36,161.36,0,0,1,28.46-7.82c4.85-.91,9.74-1.61,14.65-2.13s9.84-.83,14.78-1,9.9,0,14.83.33a132.5,132.5,0,0,1,14.73,1.8,111,111,0,0,1,28.2,8.78l-.08.22A161.15,161.15,0,0,0,229.05,370c-2.4-.35-4.83-.58-7.24-.85s-4.85-.39-7.28-.5-4.86-.21-7.29-.28-4.86,0-7.29,0a238.85,238.85,0,0,0-29.12,2.4,255.91,255.91,0,0,0-28.77,5.73Z"/><path class="cls-1" d="M226.2,182.45c-1.13.17-2.27.29-3.4.42s-2.27.24-3.41.33c-2.27.18-4.55.33-6.83.4s-4.56.12-6.85.08c-1.15,0-2.3-.08-3.45-.21-.58-.05-1.15-.13-1.74-.24a11.91,11.91,0,0,1-1.8-.46h-.06a6,6,0,0,1-.71-.42,6.22,6.22,0,0,1-.64-.51,2.66,2.66,0,0,1-.91-1.53h0l.72.12a3.32,3.32,0,0,1-1.09,1.32,5.27,5.27,0,0,1-1.48.74,6.66,6.66,0,0,1-1.58.29,9.09,9.09,0,0,1-1.57-.06h-.12l-.05,0a13.9,13.9,0,0,1-1.77-.71,15,15,0,0,1-1.66-.93,8,8,0,0,1-1.5-1.24,3.1,3.1,0,0,1-.93-1.73h0l.18.07a8.81,8.81,0,0,0-1.8,1.65,4.73,4.73,0,0,0-1.08,2.14l-.24,0a5.05,5.05,0,0,1,1.13-2.25,9.11,9.11,0,0,1,1.86-1.7l.09-.06.09.12h0a3.48,3.48,0,0,0,1.26,1.12,13.25,13.25,0,0,0,1.56.76c.54.21,1.08.42,1.64.6s1.13.37,1.67.51l-.17,0c.44,0,.88,0,1.32,0a10.34,10.34,0,0,0,1.26-.12,6.91,6.91,0,0,0,1.21-.3,5.63,5.63,0,0,0,1.1-.54l.44-.28.27.39h0a2.09,2.09,0,0,0,.87.7,6.28,6.28,0,0,0,.59.27l.61.2-.06,0c1,.12,2.11.13,3.21.15l3.37.07,6.79.17,6.81.2c1.14,0,2.27.09,3.41.15s2.28.11,3.42.21Z"/><path class="cls-1" d="M97.19,275.42c.47,5,.83,10.05,1.15,15.09s.59,10.06.83,15.1.42,10.07.54,15.11l.13,7.57c0,2.52,0,5,0,7.57h-.24c-.27-2.51-.46-5-.68-7.54l-.53-7.55q-.47-7.54-.77-15.1c-.2-5-.39-10.08-.48-15.12s-.2-10.08-.16-15.13Z"/><path class="cls-1" d="M116.8,173.52c.72,9.11,1,18.22,1.14,27.34.07,4.56.09,9.12,0,13.67s-.18,9.13-.43,13.69h-.24q-.55-6.83-.8-13.66c-.18-4.56-.28-9.12-.34-13.68-.1-9.11-.08-18.23.4-27.36Z"/><path class="cls-1" d="M117.17,240.45a3.07,3.07,0,0,1,.71,1.14,3.8,3.8,0,0,1,.23,1.19A4.52,4.52,0,0,1,118,244a3.45,3.45,0,0,1-.48,1.23l-.23,0a3.26,3.26,0,0,1-.67-1.15,4.83,4.83,0,0,1-.28-1.18,3.75,3.75,0,0,1,0-1.2,3.06,3.06,0,0,1,.52-1.24Z"/><path class="cls-1" d="M93.07,264.9a1.47,1.47,0,0,1,.73.49.63.63,0,0,1,.06.5,1.59,1.59,0,0,1-.79,1h-.24a1.56,1.56,0,0,1-.79-1,.67.67,0,0,1,0-.5,1.57,1.57,0,0,1,.74-.49Z"/><path class="cls-1" d="M292.56,208.25a3.35,3.35,0,0,1,.73,2.51,3.16,3.16,0,0,1-.35,1.17A3.24,3.24,0,0,1,292,213l-.24,0a3.11,3.11,0,0,1-.66-1.29,3.37,3.37,0,0,1-.08-1.22,3.41,3.41,0,0,1,.37-1.16,3.22,3.22,0,0,1,.93-1.11Z"/><path class="cls-1" d="M295.87,22.53a2.91,2.91,0,0,1,.61,1.24,2.86,2.86,0,0,1,0,1.13,3.31,3.31,0,0,1-.42,1.06,3.08,3.08,0,0,1-.94,1l-.24,0a3.44,3.44,0,0,1-.57-1.23,3.38,3.38,0,0,1,0-1.14,2.87,2.87,0,0,1,.38-1.07,2.83,2.83,0,0,1,1-1Z"/><path class="cls-1" d="M275.87,157.91a15.16,15.16,0,0,1-2.9,5.9,8.86,8.86,0,0,1-1.59,1.59l-.21-.12a8.68,8.68,0,0,1,.65-2.15,14.29,14.29,0,0,1,1-1.94,13.43,13.43,0,0,1,2.83-3.4Z"/><path class="cls-1" d="M276.42,165.59a15.16,15.16,0,0,1-2.9,5.9,8.55,8.55,0,0,1-1.59,1.59l-.21-.12a8.69,8.69,0,0,1,.66-2.15,13.2,13.2,0,0,1,1-1.94,13.43,13.43,0,0,1,2.83-3.4Z"/><path class="cls-1" d="M276.74,174.33a13.59,13.59,0,0,1-2.66,3.53,14.2,14.2,0,0,1-1.66,1.43,8.85,8.85,0,0,1-1.95,1.12l-.17-.17a8.55,8.55,0,0,1,1.19-1.91,14.22,14.22,0,0,1,1.48-1.62,13.54,13.54,0,0,1,3.6-2.55Z"/><path class="cls-1" d="M276.74,181.63a13.43,13.43,0,0,1-2.66,3.53,14.2,14.2,0,0,1-1.66,1.43,8.88,8.88,0,0,1-1.95,1.13l-.17-.17a8.86,8.86,0,0,1,1.19-1.92A14.12,14.12,0,0,1,273,184a13.81,13.81,0,0,1,3.6-2.56Z"/><path class="cls-1" d="M276.74,190.27a13.59,13.59,0,0,1-2.66,3.53,14.2,14.2,0,0,1-1.66,1.43,9.3,9.3,0,0,1-1.95,1.13l-.17-.18a8.79,8.79,0,0,1,1.19-1.91,13.33,13.33,0,0,1,1.48-1.61,13.58,13.58,0,0,1,3.6-2.56Z"/><path class="cls-1" d="M277.29,197.82a13.76,13.76,0,0,1-2.66,3.53,14.12,14.12,0,0,1-1.66,1.42,8.5,8.5,0,0,1-2,1.13l-.17-.17a9.26,9.26,0,0,1,1.19-1.92,14.12,14.12,0,0,1,1.48-1.61,13.6,13.6,0,0,1,3.61-2.55Z"/><path class="cls-1" d="M277.29,206a13.59,13.59,0,0,1-2.66,3.53,14.2,14.2,0,0,1-1.66,1.43,8.85,8.85,0,0,1-2,1.12l-.17-.17A8.93,8.93,0,0,1,272,210a14.22,14.22,0,0,1,1.48-1.62,13.6,13.6,0,0,1,3.61-2.55Z"/><path class="cls-1" d="M277.29,214.08a13.59,13.59,0,0,1-2.66,3.53A14.2,14.2,0,0,1,273,219a9.3,9.3,0,0,1-2,1.13l-.17-.18a9.19,9.19,0,0,1,1.19-1.91,13.33,13.33,0,0,1,1.48-1.61,13.63,13.63,0,0,1,3.61-2.56Z"/><path class="cls-1" d="M277.29,229.45a13.43,13.43,0,0,1-2.66,3.53,14.2,14.2,0,0,1-1.66,1.43,8.88,8.88,0,0,1-2,1.13l-.17-.17a9.26,9.26,0,0,1,1.19-1.92,14.12,14.12,0,0,1,1.48-1.61,13.86,13.86,0,0,1,3.61-2.56Z"/><path class="cls-1" d="M277.29,237.14a13.59,13.59,0,0,1-2.66,3.53A14.2,14.2,0,0,1,273,242.1a8.85,8.85,0,0,1-2,1.12l-.17-.17a9.19,9.19,0,0,1,1.19-1.91,14.22,14.22,0,0,1,1.48-1.62,13.6,13.6,0,0,1,3.61-2.55Z"/><path class="cls-1" d="M277.29,245.42a13.59,13.59,0,0,1-2.66,3.53,14.2,14.2,0,0,1-1.66,1.43,9.3,9.3,0,0,1-2,1.13l-.17-.18a9.19,9.19,0,0,1,1.19-1.91,15.74,15.74,0,0,1,5.09-4.17Z"/><path class="cls-1" d="M276.71,254.35a13.76,13.76,0,0,1-2.66,3.53,13.23,13.23,0,0,1-1.66,1.42,8.5,8.5,0,0,1-1.95,1.13l-.16-.17a8.52,8.52,0,0,1,1.18-1.91,13.42,13.42,0,0,1,1.48-1.62,13.6,13.6,0,0,1,3.61-2.55Z"/><path class="cls-1" d="M276.71,262a13.43,13.43,0,0,1-2.66,3.53,14.2,14.2,0,0,1-1.66,1.43,8.88,8.88,0,0,1-1.95,1.13l-.16-.17a8.82,8.82,0,0,1,1.18-1.92,14.12,14.12,0,0,1,1.48-1.61,13.86,13.86,0,0,1,3.61-2.56Z"/><path class="cls-1" d="M276.71,270.32a13.54,13.54,0,0,1-2.66,3.52,13.31,13.31,0,0,1-1.66,1.43,8.88,8.88,0,0,1-1.95,1.13l-.16-.17a8.82,8.82,0,0,1,1.18-1.92,14.12,14.12,0,0,1,1.48-1.61,13.86,13.86,0,0,1,3.61-2.56Z"/><path class="cls-1" d="M277.29,276.53a13.59,13.59,0,0,1-2.66,3.53,14.2,14.2,0,0,1-1.66,1.43,8.88,8.88,0,0,1-2,1.13l-.17-.17a9.26,9.26,0,0,1,1.19-1.92,14.12,14.12,0,0,1,1.48-1.61,13.63,13.63,0,0,1,3.61-2.56Z"/><path class="cls-1" d="M277.29,284.22a13.59,13.59,0,0,1-2.66,3.53,14.2,14.2,0,0,1-1.66,1.43,8.85,8.85,0,0,1-2,1.12l-.17-.17a8.93,8.93,0,0,1,1.19-1.91,14.22,14.22,0,0,1,1.48-1.62,13.6,13.6,0,0,1,3.61-2.55Z"/><path class="cls-1" d="M277.29,292.5a13.59,13.59,0,0,1-2.66,3.53,14.2,14.2,0,0,1-1.66,1.43,8.85,8.85,0,0,1-2,1.12l-.17-.17A9.19,9.19,0,0,1,272,296.5a14.22,14.22,0,0,1,1.48-1.62,13.6,13.6,0,0,1,3.61-2.55Z"/><path class="cls-1" d="M277.29,221.77a13.76,13.76,0,0,1-2.66,3.53,13.23,13.23,0,0,1-1.66,1.42,8.5,8.5,0,0,1-2,1.13l-.17-.17a8.93,8.93,0,0,1,1.19-1.91,13.42,13.42,0,0,1,1.48-1.62,13.6,13.6,0,0,1,3.61-2.55Z"/><path class="cls-2" d="M121.28,197.73H277.21l.62,125s-.42,21.7-23.18,20.06-119.93,3-119.93,3-15.11-2.59-12.39-25.42Z"/><text/><text class="cls-3" transform="translate(146.77 270.23)">30%</text></g></svg>