<svg xmlns="http://www.w3.org/2000/svg" viewBox="0 0 400 400"><g id="Layer_3" data-name="Layer 3"><path d="M71.9,344.63V255.2h8.49v94.34c-10.85,2.95-14.44,2-20.84-6.5-28.39-37.67-45-79.3-41.21-127.25C23.72,148.33,72.79,66.33,164.45,49.91c56.41-10.11,108.61.21,152.75,38.16,44.42,38.19,65.93,87.59,65,146.21-.66,40.09-14.42,75.67-38.93,107.39-5.86,7.57-12.24,10.95-22.1,8.13V331c-12,13.61-24.95,22.15-41.85,22.68-17.48.54-30.81-7.3-40.69-21.15-15.73-22-11.41-52.67,9.46-69.29,22.18-17.66,48.82-13.27,72.6,12.73V255.43h9v87.5c28.62-15.37,51.82-94.42,42.67-142C359,132,307.22,66.52,225.12,56.39c-91.83-11.32-155.81,40-184.63,107C10.28,233.52,34.75,305.31,71.9,344.63Zm249-41.56c-.07-23.56-18.32-42-41.51-41.94-22.87.06-41.48,19.17-41.3,42.41s18.78,42,41.77,41.95S321,326.71,320.94,303.07Z"/><path d="M128.64,350.32h-9V263.84c-3.85-4.81-13.54,2.78-12.69-8.78h12.7c0-7.49-.15-14.29,0-21.08.42-15.9,9.07-22.94,24.75-20.31,6.63,1.11,6.9,1.48,6.39,9.45-2.56-.5-5-1.07-7.51-1.46-7.76-1.22-13.76,2.64-14.34,10.08s-.12,14.94-.12,23h20.51v7.48H128.64Z"/><path d="M184.92,350.26h-9v-95h8.83v17c9.94-12.94,19.47-23.65,36.82-18.52-1.4,5.22-3.44,7.78-9.18,7.57-10.1-.38-18.31,4.61-21,14.21a197.11,197.11,0,0,0-6.26,36.37C184.12,324.4,184.92,337.07,184.92,350.26Z"/><path d="M85.34,229.49c-.56,5-3.14,8.22-8.48,8.17s-8.28-3-8.29-8.3,3.16-8.29,8.33-8.31S84.88,224.22,85.34,229.49Z"/></g></svg>