<svg xmlns="http://www.w3.org/2000/svg" viewBox="0 0 400 400"><defs><style>.cls-1{fill:#231f20;}</style></defs><g id="Layer_9" data-name="Layer 9"><polygon class="cls-1" points="185.76 79.19 215.73 79.19 215.73 92.23 200.74 103.44 185.76 93.03 185.76 79.19"/><path class="cls-1" d="M205.32,106.87l11.09-7.66s.46,12.58,1,15.09Z"/><polygon class="cls-1" points="200.22 110.07 185.07 121.05 200.74 132.72 215.73 120.94 200.22 110.07"/><polygon class="cls-1" points="200.69 139.58 180.73 153.53 200.69 168.23 220.87 153.47 200.69 139.58"/><polygon class="cls-1" points="200.51 173.43 174.67 193.85 227.16 193.85 200.51 173.43"/><path class="cls-1" d="M206.23,170.8s16.47-11.49,17.56-12.46c0,0,5.49,28,7,31Z"/><polygon class="cls-1" points="170.38 189.33 194.97 170.97 177.75 158.34 170.38 189.33"/><rect class="cls-1" x="149.85" y="199.17" width="100.42" height="13.38"/><polygon class="cls-1" points="161.97 218.15 188.39 218.15 158.08 230.96 161.97 218.15"/><path class="cls-1" d="M209.86,218.15H192.19l-11.58,36.06H220.5ZM195,222h12.24l7.14,28.31H185.88Z"/><polygon class="cls-1" points="212.35 218.15 238.94 218.15 242.72 230.96 212.35 218.15"/><polygon class="cls-1" points="218.27 227.02 224.79 250.95 241.86 236.54 218.27 227.02"/><polygon class="cls-1" points="231.91 253.44 250.61 253.44 246.32 241.09 231.91 253.44"/><polygon class="cls-1" points="175.21 250.95 182.33 227.02 158.91 236.18 175.21 250.95"/><polygon class="cls-1" points="154.88 240.91 150.68 253.78 168.78 253.78 154.88 240.91"/><rect class="cls-1" x="131.38" y="259.61" width="137.76" height="12.78"/><polygon class="cls-1" points="140.64 278.31 165.94 278.31 159.6 294.78 140.64 278.31"/><polygon class="cls-1" points="172.29 278.31 180.61 278.31 180.61 288.26 168.86 288.26 172.29 278.31"/><polygon class="cls-1" points="138.75 284.49 155.91 299.47 124.69 315.83 138.75 284.49"/><polygon class="cls-1" points="123.2 323.95 141.38 339.62 155.22 306.22 123.2 323.95"/><polygon class="cls-1" points="118.97 328.3 99.98 364.09 136.92 343.85 118.97 328.3"/><polygon class="cls-1" points="104.78 368.21 135.78 351.06 127.66 368.21 104.78 368.21"/><path class="cls-1" d="M158.2,314.57s12-6.86,21.73-9.15V293.53H166A66.12,66.12,0,0,1,158.2,314.57Z"/><path class="cls-1" d="M241.66,314.65s-12-6.91-21.7-9.23l0-11.89,14,.05A66,66,0,0,0,241.66,314.65Z"/><rect class="cls-1" x="185.87" y="293.53" width="11.21" height="10.52"/><rect class="cls-1" x="203.15" y="293.53" width="11.21" height="10.52"/><rect class="cls-1" x="203.15" y="278.03" width="11.21" height="10.52"/><rect class="cls-1" x="185.87" y="278.31" width="11.21" height="10.52"/><polygon class="cls-1" points="219.96 278.31 219.96 288.26 231.4 288.26 228.31 278.31 219.96 278.31"/><polygon class="cls-1" points="234.48 278.31 260.79 278.31 241.92 294.78 234.48 278.31"/><polygon class="cls-1" points="245.24 298.79 262.62 284.49 276 315.83 245.24 298.79"/><path class="cls-1" d="M245.23,306.22l14.19,33.4s17.61-15.44,17.95-15.44S245.23,306.22,245.23,306.22Z"/><polygon class="cls-1" points="264.45 343.74 282.29 328.3 300.93 363.52 264.45 343.74"/><polygon class="cls-1" points="264.45 350.14 273.14 368.67 296.7 368.67 264.45 350.14"/><path class="cls-1" d="M248.72,330.64s-8.92-17.16-39.11-20.59H190.39s-21.1-.68-38.08,19.05l-17.85,39.11,132.28.46Zm-88.9.05C174.16,314,192,314.61,192,314.61h16.23c25.49,2.9,33,17.39,33,17.39l15.21,32.11-111.68-.39Z"/><rect class="cls-1" x="70.64" y="374.56" width="258.71" height="12.7"/><polygon class="cls-1" points="206.23 136.26 218.53 126.54 221.79 146.78 206.23 136.26"/><polygon class="cls-1" points="182.67 126.88 179.93 146.78 195.48 136.66 182.67 126.88"/><polygon class="cls-1" points="185.76 99.2 184.16 114.3 195.48 106.75 185.76 99.2"/><rect class="cls-1" x="183.02" y="56.32" width="35.11" height="16.81"/><rect class="cls-1" x="188.39" y="41.33" width="24.36" height="9.15"/><path class="cls-1" d="M197,14.68V41.33h6.29V14.68a3.57,3.57,0,0,0-3-1.94A4.11,4.11,0,0,0,197,14.68Z"/></g></svg>