<svg id="Layer_1" data-name="Layer 1" xmlns="http://www.w3.org/2000/svg" viewBox="0 0 400 400"><defs><style>.cls-1{fill:#231f20;}</style></defs><path class="cls-1" d="M213.32,61.69S98.93,49.58,56.27,171.23c0,0-35.38,107.61,66.89,170.62,0,0,74.16,53.31,160.92,0,0,0,70.77-36.74,70.28-128.4h21.81S384.9,330.7,256,379.17c0,0-108.09,39.26-189.52-55.26,0,0-29.56-35.86-36.83-88.7,0,0-9.94-49,18.9-105.42,6.93-13.58,17.65-26.15,28-37.12A172.58,172.58,0,0,1,141,50.17c24.43-9.14,51.48-11.1,77.31-9.55l3.48.23,9.93-28.11,53.08,61.07L205.32,90.05Z"/><path class="cls-1" d="M352.67,186.5,373,183.11s3.4,7,3.28,23.75H354.85S355.09,195.47,352.67,186.5Z"/><polygon class="cls-1" points="346.12 161.06 350.24 176.08 370.6 170.51 366.72 155 346.12 161.06"/><polygon class="cls-1" points="335.46 136.82 342 151.85 361.63 142.4 354.36 126.89 335.46 136.82"/><polygon class="cls-1" points="330.11 128.6 347.38 116.33 339.52 105.88 322.62 118.89 330.11 128.6"/><polygon class="cls-1" points="305.65 101.44 320.19 86.17 328.43 93.81 313.29 107.99 305.65 101.44"/><polygon class="cls-1" points="288.69 86.17 299.59 68.96 305.65 73.81 294.5 91.5 288.69 86.17"/><path class="cls-1" d="M219.74,15.22V30.31S156.12,20,103.41,56.85C103.41,56.85,137.4,15,219.74,15.22Z"/><path class="cls-1" d="M187.41,108.27V233.36H156.2V166.3q0-14.52-.7-17.46a6.54,6.54,0,0,0-3.82-4.45q-3.13-1.5-14-1.5h-3.09V128.3q22.63-4.86,34.38-20Z"/><path class="cls-1" d="M266.84,212v21.32H198.15l0-17.84q30.53-49.92,36.28-61.78t5.75-18.5q0-5.1-1.74-7.61a6,6,0,0,0-5.3-2.51,5.82,5.82,0,0,0-5.3,2.78q-1.74,2.78-1.74,11v11.9h-28v-4.56a99.46,99.46,0,0,1,1.08-16.58,29.07,29.07,0,0,1,5.33-11.93,26.79,26.79,0,0,1,11.05-8.89,40.08,40.08,0,0,1,16.31-3q18.62,0,28.16,9.23t9.54,23.37q0,10.74-5.37,22.72T232.61,212Z"/><path class="cls-1" d="M104.3,249.78v18.68h18.1V249.78h11V298.4h-11V278.06H104.3V298.4h-11V249.78Z"/><path class="cls-1" d="M187.46,273.58c0,15.94-9.67,25.61-23.88,25.61-14.42,0-22.86-10.89-22.86-24.74,0-14.57,9.3-25.46,23.66-25.46C179.31,249,187.46,260.17,187.46,273.58Zm-35.13.65c0,9.52,4.47,16.23,11.83,16.23s11.68-7.07,11.68-16.51c0-8.73-4.18-16.23-11.75-16.23S152.33,264.79,152.33,274.23Z"/><path class="cls-1" d="M205.63,249.78v28c0,8.37,3.17,12.62,8.8,12.62s8.94-4,8.94-12.62v-28h11v27.27c0,15-7.57,22.14-20.26,22.14-12.26,0-19.48-6.78-19.48-22.29V249.78Z"/><path class="cls-1" d="M243.85,250.43a97.47,97.47,0,0,1,14.64-1c7.21,0,12.26,1.08,15.72,3.83,2.89,2.3,4.47,5.69,4.47,10.16a12.91,12.91,0,0,1-8.58,12v.21c3.39,1.37,5.27,4.62,6.49,9.09,1.52,5.48,3,11.83,4,13.71H269.31c-.8-1.37-1.95-5.34-3.39-11.33s-3.39-7.72-7.86-7.79h-3.32V298.4H243.85Zm10.89,20.92h4.33c5.48,0,8.72-2.74,8.72-7,0-4.47-3-6.71-8.07-6.78a27.89,27.89,0,0,0-5,.36Z"/><path class="cls-1" d="M287,287.07a28,28,0,0,0,12.19,3c5,0,7.72-2.09,7.72-5.26s-2.31-4.76-8.15-6.86c-8.08-2.81-13.34-7.28-13.34-14.35,0-8.29,6.92-14.64,18.39-14.64a29.72,29.72,0,0,1,12.4,2.45l-2.45,8.87a23.25,23.25,0,0,0-10.17-2.3c-4.76,0-7.07,2.16-7.07,4.68,0,3.11,2.74,4.48,9,6.86,8.58,3.17,12.62,7.64,12.62,14.49,0,8.15-6.27,15.08-19.62,15.08-5.55,0-11-1.44-13.77-3Z"/></svg>