<svg xmlns="http://www.w3.org/2000/svg" viewBox="0 0 400 400"><defs><style>.cls-1{fill:none;stroke:#231f20;stroke-miterlimit:10;stroke-width:4.04px;}.cls-2{fill:#231f20;}</style></defs><g id="Layer_11" data-name="Layer 11"><polygon class="cls-1" points="88.13 88.86 88.13 330.2 264.65 384.48 268.34 134.18 88.13 88.86"/><polygon class="cls-1" points="311.87 116.01 270.8 134.14 268.65 383.25 311.55 351.81 311.87 116.01"/><polygon class="cls-1" points="126.81 67.16 243.05 88.86 291.53 66.73 291.53 46.18 278.88 34.58 182.98 15.09 139.06 30.78 127.12 41.96 126.81 67.16"/><path class="cls-1" d="M91.52,85.7l35.29-18.54L256.4,91.67,300,102s10.31,2.34,11.59,10.07l-43.21,19.49Z"/><polygon class="cls-1" points="250.74 61.84 242.31 49.3 279.06 35.29 290.01 46.12 250.74 61.84"/><polygon class="cls-1" points="139.18 31.54 242.31 49.3 235.32 63.74 235.5 87.1 126.81 67.16 127.12 41.96 139.18 31.54"/><path class="cls-2" d="M252.42,63c.52,7.38,1,14.61,1.22,21.92l-2.88-1.75,39.29-18.57-1.16,1.87.83-19.81,1,.67c-13,5.44-25.63,10.69-38.3,15.67Zm-3.37-2.22c14.14-5.31,28.21-10.31,42.06-15.15.11,1.22,1.84,20.9,1.94,22L249.72,88.08c-.38-9.09-.6-18.32-.67-27.35Z"/><polygon class="cls-1" points="235.32 63.74 127.1 43.78 126.81 67.16 235.5 87.1 235.32 63.74"/><path class="cls-1" d="M155.22,95.65s3.05,15.22,60.43,16.4c0,0,26.46-.94,31.85-15V90L155.22,72.47Z"/><path class="cls-1" d="M164.44,93.3l0,.06c.67,2.1,5.44,3.76,7.31,4.54,8.92,3.73,18.86,4.78,28.45,4.6,1.1,0,2.21-.06,3.31-.12,6.87-.33,13.78-.57,20.56-1.82A51.61,51.61,0,0,0,234,97.79c2.57-1,7.19-2.26,5.17-5.79-2.57-4.51-8.73-3.33-12.6-1.9a52.66,52.66,0,0,1-14.71,2.78c-13.27.89-26.69-1.1-39.6-4C170,88.34,163.43,89.87,164.44,93.3Z"/><polygon class="cls-1" points="132.39 156.66 132.39 257.13 220.66 285.59 220.66 181.95 132.39 156.66"/></g></svg>